<?xml version="1.0" encoding="UTF-8"?>
<svg width="41px" height="41px" viewBox="0 0 41 41" version="1.1" xmlns="http://www.w3.org/2000/svg" xmlns:xlink="http://www.w3.org/1999/xlink">
    <!-- Generator: Sketch 52.2 (67145) - http://www.bohemiancoding.com/sketch -->
    <title>Shape</title>
    <desc>Created with Sketch.</desc>
    <g id="会员-PC" stroke="none" stroke-width="1" fill="none" fill-rule="evenodd">
        <g id="扫码登录" transform="translate(-1218.000000, -121.000000)" fill="#FF4B0A" fill-rule="nonzero">
            <g transform="translate(914.000000, 116.000000)" id="Shape">
                <path d="M306.779366,19.3911002 L304,16.4794988 L304,7.97187347 C304,7.97187347 304,5 306.894596,5 L342.104504,5 C342.104504,5 345.059021,5 344.999101,7.97187347 L344.999101,33.9537439 C344.999101,33.9537439 344.999101,36.8653454 342.104504,36.8653454 L330.120506,36.8653454 L330.235737,42.925 L321.256957,33.9537439 L342.104504,33.9537439 L342.104504,7.97187347 L306.779366,7.97187347 L306.779366,19.3911002 Z M313.225,25.69493 L313.225,13.2 L336.8,13.2 L336.8,30.625 L317.586398,30.625 L313.225,25.69493 Z M329.625,42.925 L338.797333,42.925 C338.797333,42.925 341.222083,44.4650498 338.797333,46 L332.769353,46 L329.625,42.925 Z"></path>
            </g>
        </g>
    </g>
</svg>