<?xml version="1.0" encoding="UTF-8"?>
<svg width="52px" height="52px" viewBox="0 0 52 52" version="1.1" xmlns="http://www.w3.org/2000/svg" xmlns:xlink="http://www.w3.org/1999/xlink">
    <!-- Generator: Sketch 52.2 (67145) - http://www.bohemiancoding.com/sketch -->
    <title>扫码登录</title>
    <desc>Created with Sketch.</desc>
    <g id="会员-PC" stroke="none" stroke-width="1" fill="none" fill-rule="evenodd">
        <g id="账号密码登录" transform="translate(-1207.000000, -121.000000)" fill="#FF4B0A">
            <g transform="translate(914.000000, 116.000000)" id="扫码登录">
                <g transform="translate(161.000000, 5.000000)">
                    <path d="M172.628162,40.6281619 L172.576629,40.5766294 L172.576629,37.3757455 L176.655825,37.3757455 L176.655825,30.4855284 L176.862745,30.4855284 L176.862745,30.0597451 L183.999931,30.0597451 L183.999931,33.3121615 L179.920736,33.3121615 L179.920736,40.6281619 L172.628162,40.6281619 Z M165.312186,33.3121862 L165.447396,33.3121862 L165.447396,33.4473962 L165.312186,33.3121862 Z M143.215686,11.2156863 L139.137255,7.1372549 L143.215686,7.1372549 L143.215686,11.2156863 Z M150.687814,18.6878138 L146.624304,14.6243038 L146.688054,14.6243038 L146.68021,14.6243038 L146.68021,4.06364716 L136.079132,4.06364716 L136.079132,4.07913202 L132,-1.42108547e-14 L150.759342,-2.64733669e-14 L150.759273,-2.84217094e-14 L150.767118,11.3718231 L154.031978,11.3718231 L154.031978,14.6242352 L150.767118,14.6242352 L150.767118,18.6878138 L150.687814,18.6878138 Z M162.059705,30.0597055 L158.103403,26.1034034 L158.103403,25.6763355 L158.103403,18.6878824 L162.182535,18.6878824 L162.182535,21.9402945 L165.447396,21.9402945 L165.447396,26.0038731 L162.182535,26.0038731 L162.182535,30.0597055 L162.059705,30.0597055 Z M162.182604,52 L154.024271,52 L162.182604,52 Z M179.944162,47.9441623 L184,47.9441623 L184,52 L179.944162,47.9441623 Z M169.526528,30.0596765 L172.576629,30.0596765 L172.576629,33.312093 L169.319563,33.312093 L169.319563,30.4855284 L169.526528,30.4855284 L169.526528,30.0596765 Z M172.783613,7.30824447 L176.862745,7.30824447 L176.862745,11.3718231 L172.783613,11.3718231 L172.783613,7.30824447 Z M184,26.0039074 L176.655893,26.0039074 L176.655893,21.9403235 L184,21.9403235 L184,26.0039074 Z M179.920736,40.6281619 L183.999931,40.6281619 L183.999931,44.6917459 L179.920736,44.6917459 L179.920736,40.6281619 Z M153.816997,14.6242545 L157.896192,14.6242545 L157.896192,18.6878385 L153.816997,18.6878385 L153.816997,14.6242545 Z M172.576629,21.9402549 L169.319563,21.9402549 L169.319563,18.6878385 L165.240368,18.6878385 L165.240368,14.6242545 L161.975456,14.6242545 L161.975456,11.3718381 L165.240368,11.3718381 L165.240368,7.3160004 L157.896261,7.3160004 L157.896261,4.06358397 L165.240368,4.06358397 L165.240368,-2.84217094e-14 L184,-2.84217094e-14 L184,18.6878385 L172.576629,18.6878385 L172.576629,21.9402549 Z M169.319563,4.06351542 L169.319563,14.624186 L179.920805,14.624186 L179.920805,4.06351542 L169.319563,4.06351542 Z M153.816997,7.30818555 L157.896192,7.30818555 L157.896192,11.3717695 L153.816997,11.3717695 L153.816997,7.30818555 Z"></path>
                </g>
            </g>
        </g>
    </g>
</svg>