<?xml version="1.0" encoding="UTF-8"?>
<svg width="136px" height="22px" viewBox="0 0 136 22" version="1.1" xmlns="http://www.w3.org/2000/svg" xmlns:xlink="http://www.w3.org/1999/xlink">
    <!-- Generator: Sketch 52.2 (67145) - http://www.bohemiancoding.com/sketch -->
    <title>Tips</title>
    <desc>Created with Sketch.</desc>
    <g id="会员-PC" stroke="none" stroke-width="1" fill="none" fill-rule="evenodd">
        <g id="手机动态登录" transform="translate(-1075.000000, -121.000000)">
            <g transform="translate(914.000000, 116.000000)" id="扫码登录">
                <g transform="translate(161.000000, 5.000000)">
                    <g id="Tips">
                        <path d="M127.5,0.5 L0.5,0.5 L0.5,21.5 L127.5,21.5 L127.5,17.022699 L135.117432,11.7857143 L127.5,6.54872953 L127.5,0.5 Z" id="Combined-Shape" stroke="#F3D995" fill="#FEFCEE"></path>
                        <g id="Tips-text" transform="translate(14.000000, 2.000000)" fill="#DF9C1F">
                            <text id="扫码登录更安全" font-family="PingFangSC-Regular, PingFang SC" font-size="12" font-weight="normal">
                                <tspan x="17" y="13">扫码登录更安全</tspan>
                            </text>
                            <path d="M11.6120418,3.17177564 C8.41069819,3.14007185 6.76514787,1.72373299 6.19511315,1.10071281 C6.19511315,1.10071281 5.98742467,0.865513537 5.71020505,1.11397049 C5.12925047,1.74352146 3.48436379,3.14031317 0.305508452,3.17177564 C0.305508452,3.17177564 -1.96642547,11.1246303 5.88086555,15.6379105 L5.92023134,15.6410326 C6.82882694,15.1184631 7.6120704,14.5497255 8.28683924,13.9524816 C8.28683924,13.9524816 9.12140905,13.2756012 10.2217809,11.7887357 C13.1090428,7.64706255 11.6120418,3.17177564 11.6120418,3.17177564 Z M2.09743616,4.38950579 C1.88131646,4.4573326 1.63193947,4.50122319 1.4563771,4.52650176 C1.38621248,4.90688689 1.26918599,5.79798658 1.44607563,6.87994247 C1.47334511,7.04686247 1.35995354,7.20446137 1.19304863,7.23173085 C1.1760957,7.2343854 1.1594595,7.23572776 1.14317021,7.23572776 C0.995540962,7.23572776 0.865528279,7.12865583 0.840928432,6.97837203 C0.583240881,5.40298633 0.89312958,4.21928269 0.906432502,4.170083 C0.939689806,4.04638996 1.04608302,3.95661786 1.17342606,3.94397857 C1.17742297,3.94397857 1.60234726,3.9020789 1.91391013,3.80432806 C2.07616958,3.75577692 2.24740322,3.84422174 2.29794527,4.00515392 C2.34880406,4.16671956 2.25901688,4.3383001 2.09743616,4.38950579 Z" id="Shape" fill-rule="nonzero"></path>
                        </g>
                    </g>
                </g>
            </g>
        </g>
    </g>
</svg>