<?xml version="1.0" encoding="UTF-8"?>
<svg width="140px" height="29px" viewBox="0 0 140 29" version="1.1" xmlns="http://www.w3.org/2000/svg" xmlns:xlink="http://www.w3.org/1999/xlink">
    <!-- Generator: Sketch 52.2 (67145) - http://www.bohemiancoding.com/sketch -->
    <title>描述</title>
    <desc>Created with Sketch.</desc>
    <g id="会员-PC" stroke="none" stroke-width="1" fill="none" fill-rule="evenodd">
        <g id="扫码登录" transform="translate(-1019.000000, -411.000000)">
            <g id="描述" transform="translate(1019.000000, 408.000000)">
                <path d="M28.9286127,15.9999723 L1.07141939,15.9999723 C0.480002795,15.9999723 0,16.4479685 0,16.9999701 C0,17.5519718 0.480002827,17.999968 1.07141939,17.999968 L28.9285806,17.999968 C29.5210876,17.999968 30,17.5519718 30,16.9999701 C30,16.4479685 29.5210876,15.9999723 28.9286127,15.9999723 Z M1.99999572,12.0757319 C2.552286,12.0757319 2.9999936,11.6280243 2.9999936,11.075734 L2.9999936,5.99999363 C2.9999936,5.44860134 3.44859916,4.99999575 3.99999147,4.99999575 L11.0153384,4.99999575 C11.5676287,4.99999575 12.0153363,4.55228815 12.0153363,3.99999788 C12.0153363,3.4477076 11.5676287,3 11.0153384,3 L3.99999144,3.00000003 C2.34578247,3.00000003 0.999997845,4.34578465 0.999997845,5.99999363 L0.999997876,11.075734 C0.999997876,11.6279923 1.44770544,12.0757319 1.99999572,12.0757319 Z M11.0153384,29.0000407 L3.99999144,29.0000407 C3.44859916,29.0000407 2.99999357,28.5514351 2.99999357,28.0000107 L2.9999936,23.0701602 C2.9999936,22.5178699 2.552286,22.0701623 1.99999572,22.0701623 C1.44770544,22.0701623 0.999997845,22.5178699 0.999997845,23.0701602 L0.999997845,28.0000107 C0.999997845,29.6542197 2.34578247,31.0000043 3.99999144,31.0000043 L11.0153384,31.0000043 C11.5676287,31.0000043 12.0153363,30.5522967 12.0153363,30.0000065 C12.0153363,29.4477162 11.5676287,29.0000407 11.0153384,29.0000407 Z M28.0000043,22.0701623 C27.447714,22.0701623 27.0000064,22.5178699 27.0000064,23.0701602 L27.0000064,28.0000108 C27.0000064,28.5514031 26.5514009,29.0000407 25.9999765,29.0000407 L19.0330243,29.0000407 C18.4807341,29.0000407 18.0330265,29.4477483 18.0330265,30.0000386 C18.0330265,30.5523288 18.4807341,31.0000364 19.0330243,31.0000364 L26.0000086,31.0000364 C27.6542176,31.0000364 29.0000022,29.6542518 29.0000022,28.0000428 L29.0000022,23.0701602 C29.0000022,22.5178699 28.5522946,22.0701623 28.0000043,22.0701623 Z M19.0330243,4.99996369 L26.0000086,4.99996369 C26.5514009,4.99996369 27.0000385,5.44856925 27.0000385,5.99996157 L27.0000385,11.075734 C27.0000385,11.6280243 27.4477461,12.0757319 28.0000364,12.0757319 C28.5523266,12.0757319 29.0000342,11.6280243 29.0000342,11.075734 L29.0000342,5.99999363 C29.0000342,4.34578465 27.6542496,3.00000003 26.0000407,3.00000003 L19.0330243,3.00000003 C18.4807341,3.00000003 18.0330265,3.44770763 18.0330265,3.99999791 C18.0330265,4.55228819 18.4807341,4.99996369 19.0330243,4.99996369 Z" id="Shape" fill="#FF4401" fill-rule="nonzero"></path>
                <text id="打开-手机蚂蚁海淘-扫一扫登录" font-family="PingFangSC-Regular, PingFang SC" font-size="12" font-weight="normal">
                    <tspan x="41" y="13" fill="#9C9C9C">打开 </tspan>
                    <tspan x="68.996" y="13" fill="#FF4401">手机蚂蚁海淘</tspan>
                    <tspan x="140.996" y="13" fill="#9C9C9C"></tspan>
                    <tspan x="41" y="30" fill="#9C9C9C">扫一扫登录</tspan>
                </text>
            </g>
        </g>
    </g>
</svg>