<?xml version="1.0" encoding="UTF-8"?>
<svg width="88px" height="34px" viewBox="0 0 88 34" version="1.1" xmlns="http://www.w3.org/2000/svg" xmlns:xlink="http://www.w3.org/1999/xlink">
    <!-- Generator: Sketch 52.2 (67145) - http://www.bohemiancoding.com/sketch -->
    <title>Logo</title>
    <desc>Created with Sketch.</desc>
    <defs>
        <path d="M15.796,0.764 C16.478,0.786 17.006,0.852 17.402,0.94 C17.754,1.072 18.128,1.292 18.524,1.6 C18.876,1.908 19.052,2.326 19.074,2.898 C19.052,3.404 18.898,5.714 18.612,9.85 L18.612,9.916 C19.096,9.96 19.492,10.114 19.844,10.378 C20.24,10.73 20.46,11.214 20.46,11.874 C20.46,14.932 20.196,17.704 19.69,20.212 C19.536,20.564 19.316,20.762 19.03,20.762 C18.37,20.762 17.996,20.542 17.952,20.146 C17.952,19.97 18.018,19.86 18.194,19.816 C18.7,17.308 18.964,14.69 18.986,11.962 C18.986,11.698 18.92,11.5 18.788,11.368 C18.656,11.236 18.48,11.17 18.304,11.17 C17.6,11.17 16.566,11.346 15.202,11.698 C13.838,12.006 12.958,12.16 12.584,12.16 C12.056,12.16 11.66,12.006 11.396,11.676 C11.132,11.368 11,10.928 11,10.356 C11,9.806 11.132,8.508 11.418,6.462 C11.418,5.846 11.396,5.406 11.396,5.186 C11.418,5.01 11.484,4.878 11.594,4.812 C11.682,4.746 11.836,4.702 12.056,4.702 C12.342,4.702 12.606,4.812 12.848,4.988 C13.068,5.164 13.2,5.34 13.2,5.494 C13.2,5.626 13.134,5.802 13.046,6.022 C12.958,6.242 12.914,6.462 12.914,6.704 C12.782,7.364 12.65,8.508 12.496,10.136 C12.496,10.356 12.518,10.51 12.584,10.642 C12.65,10.774 12.782,10.818 12.958,10.818 C13.134,10.818 13.86,10.664 15.136,10.334 C15.84,10.18 16.478,10.07 17.05,9.982 L17.05,9.96 C17.424,5.604 17.622,3.316 17.622,3.074 C17.622,2.788 17.49,2.546 17.27,2.326 C17.028,2.15 16.412,2.04 15.422,2.018 C14.234,2.04 13.002,2.304 11.682,2.81 C11.528,2.876 11.418,2.942 11.352,2.986 C11.264,3.03 11.198,3.052 11.154,3.052 C10.626,3.052 10.34,2.678 10.252,1.952 L10.252,1.688 C12.54,1.072 14.388,0.764 15.796,0.764 Z M9.988,15.262 L10.12,15.328 C10.164,15.328 10.252,15.35 10.384,15.35 C10.472,15.372 10.582,15.372 10.692,15.372 C10.758,15.372 11.55,15.262 13.09,15.02 C14.586,14.822 15.488,14.69 15.796,14.602 C16.104,14.514 16.28,14.448 16.368,14.448 C16.566,14.448 16.742,14.492 16.874,14.558 C17.006,14.624 17.16,14.712 17.336,14.844 C17.468,14.976 17.534,15.152 17.534,15.372 C17.534,15.548 17.468,15.68 17.336,15.812 C17.226,15.944 17.072,16.01 16.896,16.01 C16.83,16.01 16.72,16.01 16.566,15.966 C16.412,15.966 16.28,15.944 16.17,15.944 C16.038,15.944 15.906,15.922 15.73,15.922 C15.29,15.922 14.564,16.01 13.552,16.142 C12.562,16.274 11.814,16.406 11.33,16.538 C10.802,16.692 10.494,16.758 10.406,16.758 C10.252,16.758 10.12,16.692 9.988,16.56 C9.856,16.472 9.768,16.362 9.702,16.23 C9.658,16.098 9.636,15.966 9.636,15.79 C9.636,15.614 9.768,15.438 9.988,15.262 Z M6.226,11.852 L6.226,12.094 C6.798,12.05 7.26,11.984 7.59,11.918 C7.612,11.918 7.634,11.918 7.678,11.896 L7.7,11.874 C7.766,11.786 7.832,11.544 7.898,11.148 C8.074,9.652 8.184,8.134 8.184,6.616 C8.184,6.286 8.118,5.978 7.986,5.714 C7.744,5.384 7.26,5.208 6.534,5.186 L6.336,5.186 L6.226,11.852 Z M6.732,3.954 C7.304,3.954 7.81,4.064 8.228,4.24 C8.602,4.46 8.932,4.702 9.196,5.01 C9.46,5.318 9.614,5.736 9.614,6.22 C9.57,7.518 9.504,8.992 9.394,10.642 C9.35,11.06 9.328,11.39 9.306,11.61 L9.24,12.116 C9.482,12.336 9.614,12.512 9.614,12.644 C9.614,13.04 9.35,13.238 8.844,13.238 C8.756,13.238 8.602,13.238 8.36,13.216 C8.14,13.172 7.986,13.15 7.876,13.15 C7.612,13.15 7.062,13.194 6.226,13.282 C6.248,14.58 6.292,15.768 6.38,16.824 C6.38,17.132 6.446,17.484 6.534,17.836 C6.6,17.792 6.666,17.77 6.732,17.77 C7.128,17.66 7.436,17.594 7.634,17.572 C7.59,17.462 7.546,17.374 7.524,17.286 C7.26,16.56 7.15,16.01 7.15,15.636 C7.15,15.46 7.194,15.306 7.282,15.174 C7.37,15.064 7.502,14.998 7.722,14.976 C7.898,14.998 8.074,15.042 8.272,15.13 C8.448,15.262 8.536,15.394 8.558,15.548 C8.558,15.636 8.602,15.966 8.734,16.494 C8.866,17.044 9.086,17.55 9.372,18.034 C9.592,18.474 9.812,18.804 9.988,19.002 C10.032,19.068 10.098,19.134 10.186,19.2 C10.23,19.266 10.274,19.354 10.274,19.442 C10.274,19.53 10.208,19.64 10.076,19.794 C9.834,20.058 9.614,20.19 9.416,20.19 C9.174,20.19 8.866,19.882 8.492,19.266 C8.382,19.112 8.294,18.958 8.228,18.826 C8.206,18.826 8.184,18.848 8.184,18.848 C7.964,18.87 7.634,18.936 7.238,19.024 C6.688,19.112 5.94,19.31 4.994,19.618 L2.992,20.278 C2.618,20.41 2.332,20.476 2.112,20.476 C1.936,20.476 1.782,20.41 1.672,20.278 C1.54,20.168 1.496,19.992 1.496,19.772 C1.496,19.574 1.518,19.332 1.584,19.046 L1.914,19.002 C2.266,18.958 2.684,18.87 3.146,18.76 C3.586,18.65 4.158,18.496 4.862,18.298 C4.906,18.276 4.928,18.276 4.972,18.276 C4.928,18.144 4.928,17.99 4.928,17.836 L4.928,16.604 C4.95,15.68 4.972,14.602 4.972,13.392 C4.334,13.48 3.674,13.568 3.014,13.7 L3.014,13.744 C2.904,13.964 2.728,14.074 2.464,14.074 C2.178,14.074 1.958,13.876 1.826,13.502 C1.694,12.908 1.628,11.28 1.628,8.618 L1.628,5.186 C1.628,5.076 1.606,4.944 1.606,4.79 C1.584,4.636 1.562,4.526 1.562,4.482 C1.562,4.174 1.76,3.998 2.2,3.998 C2.354,4.02 2.574,4.108 2.838,4.262 C2.926,4.35 2.992,4.416 3.058,4.46 C3.74,4.306 4.378,4.174 4.972,4.086 C4.972,3.228 4.95,2.656 4.928,2.392 C4.884,2.128 4.862,1.886 4.862,1.666 C4.796,1.49 4.774,1.336 4.774,1.226 C4.774,1.05 4.906,0.852 5.17,0.654 C5.434,0.434 5.654,0.302 5.83,0.302 C5.962,0.302 6.138,0.368 6.336,0.456 C6.512,0.566 6.622,0.698 6.622,0.83 C6.622,0.918 6.578,1.094 6.534,1.402 C6.446,1.71 6.402,2.106 6.38,2.59 C6.336,2.964 6.336,3.426 6.336,3.954 L6.732,3.954 Z M4.972,5.384 C4.356,5.516 3.718,5.714 3.058,5.956 C3.014,5.978 2.992,5.978 2.992,5.978 C2.948,7.122 2.926,8.002 2.926,8.618 C2.926,9.586 2.926,10.444 2.97,11.17 C2.97,11.742 2.992,12.116 3.014,12.27 C3.014,12.358 3.014,12.402 3.036,12.402 L4.972,12.204 L4.972,5.384 Z M41.976,20.498 C41.844,20.498 41.69,20.454 41.514,20.388 C40.48,19.772 39.204,18.386 37.686,16.274 C37.51,16.054 37.334,15.812 37.202,15.57 C36.982,16.032 36.762,16.428 36.586,16.758 C35.838,18.078 35.178,19.068 34.628,19.728 C34.122,20.3 33.726,20.608 33.462,20.608 C33.066,20.608 32.692,20.234 32.296,19.486 C32.384,19.442 32.582,19.31 32.868,19.134 C33.176,18.914 33.528,18.606 33.88,18.188 C34.342,17.638 35.002,16.582 35.882,14.998 L36.3,14.206 C35.354,12.732 34.54,11.236 33.88,9.718 C32.912,7.474 32.428,6.044 32.428,5.428 C32.428,5.23 32.472,5.076 32.56,4.944 C32.648,4.834 32.78,4.768 32.956,4.768 C33.132,4.768 33.308,4.812 33.462,4.856 C33.572,4.922 33.66,4.988 33.726,5.032 C33.77,5.12 33.814,5.186 33.836,5.23 C33.924,5.978 34.408,7.452 35.332,9.63 C35.816,10.752 36.366,11.808 36.938,12.82 C37.466,11.588 38.038,10.114 38.632,8.42 C39.622,5.626 40.128,3.734 40.128,2.744 C40.128,2.568 40.238,2.48 40.48,2.48 C40.744,2.48 41.008,2.568 41.25,2.722 C41.514,2.876 41.646,3.03 41.646,3.206 C41.646,3.47 41.514,3.91 41.294,4.504 C40.876,6.022 40.172,8.112 39.182,10.796 C38.676,12.138 38.214,13.282 37.796,14.25 C38.104,14.756 38.434,15.24 38.764,15.68 C40.062,17.528 41.096,18.738 41.888,19.266 L42.196,19.398 C42.306,19.42 42.416,19.486 42.504,19.596 C42.57,19.684 42.614,19.816 42.614,20.014 C42.57,20.322 42.35,20.498 41.976,20.498 Z M37.752,4.02 C37.752,4.152 37.664,4.328 37.51,4.504 C37.334,4.68 37.114,4.768 36.894,4.768 C36.828,4.768 36.762,4.658 36.718,4.438 C36.652,4.218 36.476,3.844 36.19,3.316 C35.86,2.832 35.596,2.48 35.398,2.26 C35.178,2.018 34.98,1.842 34.804,1.732 C34.584,1.644 34.496,1.534 34.496,1.358 C34.496,1.138 34.562,0.918 34.738,0.742 C34.87,0.544 35.068,0.434 35.354,0.434 C35.794,0.5 36.3,1.006 36.872,1.974 C37.444,2.964 37.73,3.646 37.752,4.02 Z M28.116,11.852 L28.116,12.182 C28.732,12.138 29.194,12.072 29.524,12.006 L29.546,12.006 C29.59,11.94 29.634,11.852 29.722,11.764 C29.766,11.676 29.81,11.412 29.854,11.016 C29.986,9.52 30.074,8.024 30.074,6.528 C30.074,6.198 30.008,5.912 29.876,5.648 C29.656,5.34 29.194,5.164 28.49,5.142 C28.38,5.142 28.292,5.164 28.204,5.164 L28.116,11.852 Z M28.688,3.954 C29.26,3.954 29.722,4.064 30.118,4.24 C30.492,4.438 30.8,4.68 31.064,4.966 C31.328,5.274 31.46,5.648 31.46,6.132 C31.438,7.408 31.394,8.882 31.306,10.51 C31.284,10.928 31.262,11.258 31.262,11.478 C31.24,11.742 31.218,11.94 31.196,12.094 L31.152,12.248 C31.328,12.424 31.438,12.556 31.438,12.688 C31.438,13.062 31.196,13.26 30.712,13.26 C30.646,13.26 30.492,13.26 30.272,13.238 C30.052,13.194 29.898,13.172 29.81,13.172 C29.568,13.172 28.996,13.216 28.116,13.282 C28.116,14.602 28.16,15.79 28.248,16.868 C28.27,17.198 28.314,17.55 28.402,17.924 C28.644,17.836 28.886,17.77 29.106,17.726 C29.326,17.66 29.502,17.616 29.656,17.594 C29.612,17.462 29.568,17.33 29.546,17.242 C29.326,16.516 29.238,15.966 29.238,15.592 C29.238,15.416 29.282,15.284 29.37,15.152 C29.436,15.064 29.568,14.998 29.766,14.976 C29.92,14.998 30.096,15.042 30.294,15.108 C30.448,15.24 30.536,15.372 30.558,15.526 C30.558,15.614 30.602,15.922 30.712,16.472 C30.8,17.044 30.932,17.572 31.13,18.056 C31.306,18.518 31.46,18.848 31.592,19.046 C31.636,19.09 31.68,19.156 31.768,19.222 C31.812,19.288 31.856,19.376 31.856,19.464 C31.856,19.53 31.79,19.64 31.658,19.794 C31.438,20.014 31.24,20.146 31.042,20.146 C30.844,20.146 30.602,19.838 30.316,19.222 C30.228,19.09 30.184,18.958 30.14,18.848 L29.656,18.936 C29.062,19.024 28.248,19.244 27.236,19.552 C26.18,19.882 25.476,20.124 25.124,20.256 C24.728,20.388 24.398,20.454 24.178,20.454 C24.002,20.454 23.848,20.388 23.76,20.256 C23.628,20.146 23.584,19.97 23.584,19.75 C23.584,19.574 23.606,19.332 23.672,19.068 L23.98,19.024 C24.376,18.98 24.794,18.892 25.278,18.782 C25.718,18.672 26.268,18.54 26.928,18.364 C26.884,18.21 26.862,18.056 26.862,17.88 L26.862,16.692 C26.862,15.724 26.884,14.624 26.884,13.414 C26.312,13.502 25.718,13.59 25.146,13.7 C25.146,13.744 25.124,13.766 25.124,13.788 C25.036,14.008 24.86,14.096 24.618,14.096 C24.332,14.096 24.112,13.898 23.98,13.546 C23.848,12.93 23.804,11.302 23.804,8.618 C23.804,7.782 23.76,6.594 23.716,5.098 C23.716,5.01 23.694,4.878 23.694,4.724 C23.694,4.592 23.672,4.504 23.672,4.438 C23.672,4.13 23.87,3.976 24.266,3.976 C24.42,3.998 24.618,4.086 24.882,4.24 C24.992,4.328 25.08,4.416 25.124,4.46 C25.74,4.306 26.334,4.196 26.884,4.108 C26.884,3.184 26.862,2.568 26.84,2.304 C26.818,2.04 26.796,1.82 26.774,1.622 C26.73,1.446 26.708,1.292 26.708,1.182 C26.708,1.006 26.818,0.83 27.082,0.632 C27.346,0.412 27.544,0.302 27.72,0.302 C27.852,0.302 28.028,0.368 28.204,0.456 C28.38,0.566 28.49,0.676 28.49,0.808 C28.49,0.896 28.446,1.072 28.402,1.38 C28.314,1.688 28.27,2.084 28.248,2.568 C28.204,2.964 28.204,3.426 28.204,3.976 C28.38,3.976 28.534,3.954 28.688,3.954 Z M26.884,5.362 C26.356,5.494 25.784,5.648 25.212,5.846 L25.08,5.912 C25.036,7.1 25.036,8.002 25.036,8.618 C25.036,9.608 25.036,10.466 25.08,11.192 C25.08,11.786 25.102,12.16 25.124,12.336 C25.124,12.402 25.124,12.446 25.146,12.49 C25.674,12.446 26.246,12.38 26.884,12.314 L26.884,5.362 Z M55.792,17.748 C57.376,17.748 58.916,17.572 60.368,17.264 C60.456,16.582 60.566,15.812 60.676,14.932 C60.764,14.14 60.83,13.326 60.874,12.49 C60.06,12.534 59.114,12.6 58.036,12.688 C56.298,12.776 54.912,12.886 53.9,12.996 C53.724,14.228 53.636,15.262 53.636,16.12 C53.636,17.198 54.34,17.748 55.792,17.748 Z M62.282,12.424 C62.194,14.008 62.062,15.482 61.886,16.868 C61.93,16.868 61.974,16.846 62.018,16.824 C62.106,16.78 62.15,16.736 62.194,16.692 C62.238,16.67 62.392,16.648 62.612,16.648 C62.942,16.714 63.184,16.846 63.316,17.044 C63.36,17.154 63.382,17.264 63.382,17.374 C63.382,17.682 63.074,17.946 62.502,18.144 C62.216,18.21 61.952,18.276 61.688,18.342 L61.358,20.168 C61.27,20.41 61.116,20.542 60.896,20.542 C60.632,20.542 60.39,20.454 60.17,20.322 C59.95,20.19 59.84,19.992 59.84,19.772 C59.84,19.706 59.862,19.64 59.95,19.552 C60.016,19.288 60.082,18.98 60.148,18.65 C58.784,18.848 57.398,18.958 55.968,18.98 C54.758,18.98 53.834,18.716 53.196,18.232 C52.558,17.704 52.25,16.956 52.25,15.944 C52.25,15.174 52.316,14.25 52.448,13.194 C51.678,13.326 51.216,13.37 51.04,13.37 C50.908,13.37 50.776,13.326 50.666,13.194 C50.534,13.084 50.424,12.974 50.38,12.842 C50.336,12.754 50.314,12.622 50.314,12.446 C50.314,12.27 50.446,12.072 50.666,11.874 L50.798,11.94 C50.842,11.94 50.908,11.962 51.04,11.962 C51.128,11.984 51.216,11.984 51.348,11.984 C51.414,11.984 51.854,11.962 52.646,11.896 C52.866,10.4 53.218,8.706 53.658,6.792 C53.702,6.594 53.746,6.352 53.79,6.088 C53.79,5.912 53.966,5.802 54.274,5.802 C54.516,5.802 54.758,5.89 55.022,6.066 C55.022,6.088 55.044,6.088 55.066,6.088 C56.518,5.824 57.882,5.692 59.136,5.692 C59.818,5.692 60.368,5.758 60.786,5.846 C61.182,5.978 61.534,6.176 61.886,6.462 C62.238,6.792 62.414,7.254 62.414,7.87 C62.414,9.014 62.392,10.092 62.348,11.104 C62.92,11.016 63.294,10.972 63.448,10.972 C63.624,10.972 63.778,11.016 63.932,11.06 C64.086,11.148 64.24,11.236 64.394,11.346 C64.526,11.478 64.592,11.654 64.592,11.874 C64.592,12.05 64.526,12.182 64.416,12.314 C64.284,12.446 64.13,12.49 63.954,12.49 C63.888,12.49 63.8,12.49 63.668,12.468 C63.514,12.468 63.382,12.446 63.25,12.446 C63.118,12.446 62.986,12.424 62.81,12.424 L62.282,12.424 Z M60.918,11.258 C60.962,10.158 61.006,9.014 61.006,7.87 C61.006,7.408 60.764,7.1 60.302,6.968 C59.994,6.902 59.576,6.858 59.092,6.858 C57.882,6.858 56.672,7.012 55.44,7.298 C55.33,7.32 55.22,7.342 55.132,7.364 C54.78,8.53 54.516,9.674 54.296,10.796 C54.208,11.148 54.142,11.478 54.098,11.786 C54.758,11.742 55.55,11.698 56.43,11.61 C58.41,11.478 59.906,11.346 60.918,11.258 Z M59.246,9.652 C59.246,9.828 59.224,9.982 59.18,10.092 C59.136,10.268 59.048,10.4 58.894,10.51 C58.762,10.598 58.608,10.62 58.388,10.62 C58.322,10.62 58.256,10.576 58.212,10.488 C58.146,10.444 57.992,10.29 57.728,10.048 C57.464,9.828 57.2,9.608 56.914,9.388 C56.606,9.212 56.452,9.102 56.43,9.058 C56.386,9.014 56.364,8.948 56.364,8.904 C56.364,8.772 56.43,8.596 56.584,8.376 C56.738,8.156 56.892,8.046 57.068,8.046 C57.156,8.046 57.266,8.112 57.398,8.222 C57.442,8.288 57.574,8.376 57.794,8.508 C58.014,8.64 58.366,8.926 58.894,9.366 C58.982,9.432 59.048,9.498 59.136,9.542 C59.202,9.586 59.246,9.63 59.246,9.652 Z M58.718,15.548 C58.718,15.702 58.696,15.834 58.652,15.966 C58.608,16.142 58.498,16.274 58.344,16.384 C58.234,16.45 58.08,16.472 57.86,16.472 C57.794,16.472 57.728,16.45 57.64,16.362 C57.574,16.318 57.42,16.164 57.156,15.922 C56.848,15.702 56.562,15.504 56.276,15.306 C55.946,15.13 55.77,15.02 55.726,14.976 C55.682,14.932 55.66,14.866 55.66,14.822 C55.66,14.69 55.726,14.536 55.88,14.316 C56.034,14.096 56.188,13.964 56.364,13.964 C56.43,13.964 56.54,14.03 56.672,14.162 C56.738,14.228 56.892,14.316 57.112,14.448 C57.332,14.58 57.728,14.844 58.3,15.262 C58.388,15.328 58.498,15.394 58.586,15.438 C58.674,15.482 58.718,15.526 58.718,15.548 Z M56.232,1.402 C56.078,1.49 55.924,1.6 55.792,1.754 C55.506,2.04 55.242,2.304 55.022,2.568 C55.55,2.524 56.034,2.458 56.518,2.414 C57.354,2.348 58.19,2.282 58.982,2.238 C60.236,2.15 61.028,2.106 61.358,2.062 L62.282,1.93 C62.436,1.93 62.7,2.062 63.096,2.282 C63.492,2.546 63.712,2.766 63.712,2.898 C63.712,3.272 63.536,3.47 63.184,3.492 C62.964,3.492 62.722,3.47 62.502,3.404 C62.26,3.36 62.04,3.338 61.842,3.338 C61.226,3.338 60.192,3.382 58.762,3.47 C57.332,3.558 56.166,3.668 55.242,3.822 L54.714,3.932 C54.582,3.976 54.45,3.998 54.318,3.998 C54.186,3.998 54.076,3.954 53.988,3.866 C53.548,4.438 53.174,5.01 52.822,5.626 C52.536,6.11 52.36,6.55 52.294,6.946 C51.458,6.836 51.04,6.484 51.04,5.89 C51.04,5.692 51.26,5.274 51.656,4.658 C52.668,3.228 53.504,2.15 54.208,1.424 C54.736,0.874 55.11,0.522 55.33,0.39 C55.396,0.346 55.484,0.302 55.616,0.302 C55.88,0.302 56.1,0.39 56.232,0.544 C56.342,0.72 56.408,0.874 56.408,1.006 C56.408,1.182 56.342,1.314 56.232,1.402 Z M47.168,1.182 C47.476,1.182 47.894,1.27 48.378,1.402 C48.862,1.578 49.302,1.82 49.72,2.128 C50.072,2.436 50.27,2.7 50.27,2.942 C50.27,3.162 50.226,3.382 50.16,3.58 C50.072,3.778 49.984,3.866 49.874,3.866 C49.764,3.866 49.61,3.778 49.39,3.558 C49.214,3.404 48.95,3.206 48.62,2.964 C48.268,2.766 47.85,2.656 47.366,2.656 C47.234,2.656 47.124,2.678 46.992,2.678 C46.86,2.678 46.728,2.612 46.596,2.48 C46.464,2.348 46.42,2.15 46.42,1.864 C46.42,1.6 46.486,1.424 46.662,1.314 C46.794,1.226 46.948,1.182 47.168,1.182 Z M46.112,7.936 C46.464,7.936 46.904,8.002 47.454,8.134 C47.982,8.266 48.466,8.486 48.928,8.75 C49.324,9.014 49.544,9.256 49.544,9.454 C49.544,9.674 49.5,9.894 49.434,10.07 C49.346,10.29 49.258,10.378 49.126,10.378 C49.016,10.378 48.84,10.29 48.598,10.114 C48.4,10.004 48.114,9.85 47.74,9.674 C47.344,9.498 46.86,9.41 46.31,9.41 C46.178,9.41 46.068,9.432 45.936,9.432 C45.804,9.432 45.672,9.366 45.54,9.234 C45.408,9.124 45.364,8.926 45.364,8.618 C45.364,8.354 45.43,8.178 45.606,8.068 C45.738,7.98 45.892,7.936 46.112,7.936 Z M45.672,18.056 C45.804,18.012 46.046,17.902 46.354,17.748 C46.662,17.572 47.124,17.286 47.696,16.934 C48.246,16.604 48.708,16.34 49.06,16.142 C49.412,15.966 49.676,15.878 49.852,15.878 C50.028,15.878 50.182,15.966 50.314,16.098 C50.402,16.274 50.446,16.406 50.468,16.494 C50.468,16.604 50.446,16.714 50.424,16.802 C50.38,16.912 50.27,17 50.116,17.044 C50.006,17.066 49.808,17.176 49.5,17.374 C49.192,17.506 48.752,17.77 48.202,18.21 C47.652,18.606 47.256,18.958 46.992,19.222 C46.684,19.486 46.464,19.64 46.332,19.64 C46.112,19.618 45.936,19.53 45.804,19.398 C45.672,19.266 45.606,19.09 45.606,18.848 C45.606,18.584 45.628,18.32 45.672,18.056 Z M76.098,17.418 C76.67,17.418 77.264,17.352 77.858,17.264 C77.836,17.22 77.836,17.176 77.836,17.154 C77.792,16.978 77.792,16.758 77.792,16.516 C77.792,15.768 77.814,15.196 77.814,14.844 L77.814,12.468 C76.736,12.556 75.724,12.71 74.756,12.886 C74.36,12.996 74.118,13.04 74.008,13.04 C73.876,13.04 73.766,12.93 73.656,12.71 C73.546,12.49 73.502,12.27 73.502,12.028 C73.502,11.94 73.546,11.852 73.634,11.808 C74.998,11.588 76.34,11.434 77.616,11.324 C77.682,11.324 77.748,11.324 77.814,11.302 L77.814,10.048 C77.814,9.74 77.792,9.432 77.77,9.124 C77.77,9.08 77.748,9.014 77.748,8.948 C77.066,8.992 76.56,8.992 76.23,8.992 C76.142,8.992 76.01,8.97 75.856,8.926 C75.834,8.926 75.834,8.926 75.834,8.904 C75.68,9.168 75.548,9.432 75.416,9.674 C75.24,10.026 75.13,10.356 75.086,10.642 C74.338,10.554 73.964,10.224 73.964,9.696 C73.964,9.564 74.096,9.256 74.36,8.816 C75.02,7.782 75.57,6.99 76.01,6.44 C76.362,6.044 76.604,5.78 76.736,5.692 C76.802,5.648 76.89,5.604 77.022,5.604 C77.264,5.604 77.44,5.692 77.55,5.824 C77.66,5.978 77.726,6.132 77.726,6.264 C77.726,6.418 77.66,6.528 77.55,6.594 C77.462,6.66 77.374,6.748 77.286,6.836 C76.978,7.188 76.692,7.562 76.428,7.958 C77,7.936 77.792,7.87 78.804,7.738 C79.992,7.606 80.806,7.54 81.246,7.54 C81.466,7.54 81.642,7.628 81.774,7.76 C81.884,7.914 81.95,8.068 81.95,8.2 C81.95,8.376 81.884,8.486 81.796,8.574 C81.708,8.706 81.576,8.75 81.4,8.75 C81.158,8.75 80.982,8.728 80.85,8.728 C80.432,8.728 79.882,8.772 79.222,8.816 C79.2,8.948 79.156,9.102 79.112,9.278 C79.046,9.674 79.024,10.004 79.024,10.224 L79.024,11.236 C79.882,11.192 80.762,11.148 81.664,11.148 C82.016,11.148 82.346,11.17 82.698,11.214 C83.006,11.28 83.182,11.39 83.182,11.544 C83.182,11.764 83.16,11.962 83.138,12.116 C83.094,12.292 83.05,12.38 82.984,12.38 C82.874,12.38 82.676,12.38 82.412,12.358 C82.126,12.358 81.928,12.336 81.796,12.336 C81.114,12.336 80.19,12.358 79.024,12.402 L79.024,14.932 C79.024,15.834 79.068,16.516 79.156,16.978 C80.036,16.714 80.674,16.472 81.07,16.23 C81.114,16.23 81.136,16.208 81.158,16.208 C81.158,15.724 81.136,15.218 81.136,14.69 C81.136,14.602 81.114,14.448 81.092,14.184 C81.092,13.964 81.224,13.854 81.51,13.854 C81.686,13.854 81.884,13.92 82.104,14.03 C82.324,14.162 82.456,14.316 82.456,14.47 C82.456,14.536 82.412,14.646 82.346,14.8 C82.28,14.998 82.258,15.196 82.258,15.416 C82.258,16.472 82.28,17.11 82.368,17.352 C82.368,17.396 82.39,17.528 82.456,17.77 C82.456,17.99 82.39,18.166 82.28,18.298 C82.148,18.43 82.016,18.496 81.906,18.496 C81.664,18.474 81.488,18.386 81.4,18.232 C81.29,18.056 81.224,17.814 81.202,17.55 C80.696,17.77 80.08,17.968 79.354,18.166 C78.298,18.408 77.242,18.54 76.186,18.54 C75.46,18.54 74.932,18.386 74.602,18.122 C74.228,17.836 74.052,17.396 74.052,16.802 C74.052,16.45 74.096,16.01 74.228,15.482 C74.338,14.932 74.404,14.646 74.404,14.624 C74.404,14.47 74.492,14.382 74.712,14.36 C74.844,14.36 75.02,14.382 75.218,14.426 C75.57,14.58 75.746,14.734 75.768,14.91 C75.768,14.976 75.724,15.042 75.658,15.13 C75.636,15.262 75.614,15.35 75.57,15.438 C75.372,16.076 75.262,16.582 75.262,16.956 C75.262,17.264 75.526,17.418 76.098,17.418 Z M72.886,5.912 C72.886,5.846 72.908,5.758 72.952,5.67 C72.996,5.582 73.128,5.45 73.304,5.252 C73.48,4.988 73.678,4.68 73.92,4.284 C74.162,3.91 74.602,3.294 75.218,2.436 C75.834,1.578 76.274,1.028 76.56,0.764 C76.824,0.5 77.066,0.368 77.264,0.346 C77.704,0.39 77.924,0.544 77.924,0.852 C77.924,1.072 77.836,1.292 77.682,1.49 C77.572,1.534 77.352,1.732 77.022,2.084 C76.802,2.326 76.516,2.7 76.186,3.206 C79.024,2.876 81.444,2.7 83.424,2.7 C83.996,2.7 84.458,2.788 84.854,2.964 C85.228,3.162 85.536,3.404 85.8,3.69 C86.064,3.998 86.196,4.372 86.196,4.856 C86.152,8.024 86.042,11.654 85.866,15.746 C85.822,16.802 85.778,17.594 85.734,18.166 C85.712,18.76 85.668,19.266 85.624,19.706 C85.558,19.926 85.426,20.124 85.228,20.3 C85.008,20.454 84.81,20.542 84.656,20.542 C84.524,20.52 84.37,20.41 84.172,20.19 C83.952,19.992 83.864,19.838 83.864,19.75 C83.864,19.662 83.93,19.53 84.084,19.354 C84.194,19.09 84.304,18.43 84.392,17.396 C84.656,13.348 84.788,9.322 84.788,5.274 C84.788,4.922 84.722,4.636 84.59,4.394 C84.348,4.064 83.886,3.888 83.226,3.866 C81.334,3.866 79.112,4.086 76.538,4.504 C75.988,4.614 75.702,4.658 75.658,4.658 C75.504,4.658 75.372,4.636 75.284,4.57 C74.844,5.274 74.536,5.868 74.316,6.374 C74.272,6.462 74.206,6.572 74.14,6.682 C74.008,6.836 73.81,6.902 73.568,6.902 C73.392,6.902 73.238,6.792 73.106,6.572 C72.952,6.352 72.886,6.132 72.886,5.912 Z M69.08,1.204 C69.41,1.204 69.828,1.292 70.334,1.424 C70.818,1.6 71.258,1.842 71.698,2.15 C72.072,2.458 72.27,2.722 72.27,2.964 C72.27,3.184 72.226,3.404 72.16,3.602 C72.072,3.8 71.984,3.888 71.874,3.888 C71.764,3.888 71.588,3.8 71.368,3.58 C71.192,3.426 70.928,3.228 70.576,2.986 C70.224,2.788 69.784,2.678 69.278,2.678 C69.146,2.678 69.036,2.7 68.904,2.7 C68.772,2.7 68.64,2.634 68.508,2.502 C68.376,2.37 68.332,2.172 68.332,1.886 C68.332,1.622 68.398,1.446 68.574,1.336 C68.706,1.248 68.86,1.204 69.08,1.204 Z M68.134,7.958 C68.486,7.958 68.926,8.024 69.476,8.156 C70.004,8.288 70.488,8.486 70.95,8.75 C71.346,9.014 71.566,9.256 71.566,9.454 C71.566,9.674 71.522,9.894 71.456,10.07 C71.368,10.29 71.28,10.378 71.148,10.378 C71.038,10.378 70.862,10.312 70.62,10.136 C70.422,10.026 70.136,9.872 69.762,9.674 C69.366,9.52 68.882,9.432 68.332,9.432 C68.2,9.432 68.09,9.454 67.958,9.454 C67.826,9.454 67.694,9.388 67.562,9.256 C67.43,9.146 67.386,8.948 67.386,8.64 C67.386,8.376 67.452,8.178 67.628,8.09 C67.76,8.002 67.914,7.958 68.134,7.958 Z M67.628,18.1 C67.76,18.056 68.002,17.946 68.332,17.77 C68.64,17.594 69.102,17.308 69.674,16.956 C70.246,16.604 70.708,16.34 71.06,16.12 C71.412,15.944 71.698,15.856 71.874,15.856 C72.05,15.856 72.204,15.944 72.336,16.076 C72.424,16.252 72.468,16.384 72.49,16.472 C72.49,16.582 72.468,16.692 72.446,16.78 C72.402,16.89 72.292,16.978 72.138,17.022 C72.028,17.044 71.83,17.154 71.522,17.352 C71.192,17.484 70.752,17.792 70.18,18.232 C69.63,18.65 69.212,18.98 68.948,19.244 C68.64,19.53 68.42,19.684 68.288,19.684 C68.068,19.662 67.892,19.574 67.76,19.442 C67.628,19.31 67.562,19.112 67.562,18.892 C67.562,18.628 67.584,18.364 67.628,18.1 Z" id="path-1"></path>
        <path d="M7.344,31.556 C7.344,31.772 7.284,31.928 7.176,32.036 C7.056,32.144 6.9,32.204 6.684,32.204 C6.636,32.204 6.588,32.18 6.54,32.156 C6.48,32.108 6.432,32.072 6.384,32.024 C6.324,31.976 6.276,31.928 6.24,31.868 C6.192,31.82 6.18,31.784 6.18,31.736 C6.18,31.712 6.192,31.664 6.24,31.616 C6.264,31.568 6.3,31.532 6.324,31.508 C6.336,31.46 6.348,31.352 6.36,31.184 C6.372,31.028 6.384,30.884 6.384,30.74 L6.384,30.512 C6.384,30.404 6.372,30.26 6.372,30.092 L6.348,29.564 C6.336,29.372 6.324,29.18 6.3,28.988 C6.276,28.772 6.24,28.568 6.204,28.364 C6.156,28.172 6.108,28.004 6.048,27.86 C5.988,27.716 5.928,27.608 5.856,27.524 C5.772,27.44 5.688,27.392 5.616,27.392 C5.448,27.392 5.292,27.488 5.16,27.668 C5.016,27.848 4.908,28.052 4.824,28.292 C4.728,28.532 4.656,28.784 4.608,29.024 C4.56,29.276 4.536,29.468 4.536,29.6 L4.536,30.128 C4.536,30.248 4.548,30.356 4.548,30.452 L4.548,30.644 C4.548,30.668 4.548,30.716 4.56,30.788 L4.56,31.016 C4.56,31.112 4.572,31.196 4.572,31.268 L4.572,31.436 C4.572,31.58 4.5,31.688 4.38,31.772 C4.248,31.868 4.128,31.916 4.02,31.916 C3.936,31.916 3.864,31.892 3.816,31.832 C3.756,31.784 3.708,31.712 3.684,31.628 C3.648,31.556 3.624,31.472 3.612,31.376 C3.588,31.292 3.588,31.22 3.588,31.16 C3.588,31.136 3.576,31.052 3.576,30.92 C3.576,30.8 3.564,30.644 3.564,30.476 L3.54,29.996 C3.528,29.828 3.528,29.696 3.528,29.576 C3.528,29.516 3.516,29.372 3.516,29.156 C3.504,28.952 3.48,28.736 3.456,28.496 C3.408,28.232 3.348,28.004 3.264,27.812 C3.168,27.644 3.072,27.548 2.964,27.548 C2.844,27.548 2.712,27.62 2.544,27.74 C2.364,27.884 2.22,28.052 2.112,28.268 C2.016,28.46 1.944,28.64 1.896,28.832 C1.836,29.024 1.812,29.18 1.812,29.276 L1.812,29.564 C1.812,29.708 1.8,29.864 1.8,30.02 L1.8,30.776 C1.8,31.04 1.788,31.256 1.764,31.436 C1.74,31.628 1.704,31.748 1.68,31.796 C1.62,31.88 1.548,31.94 1.464,31.988 C1.368,32.036 1.272,32.072 1.188,32.072 C1.092,32.072 0.984,32.036 0.888,31.988 C0.78,31.94 0.72,31.88 0.72,31.796 C0.732,31.736 0.744,31.676 0.744,31.604 C0.744,31.532 0.756,31.472 0.78,31.4 L0.816,30.896 C0.828,30.728 0.84,30.584 0.84,30.464 L0.84,28.892 L0.816,28.148 C0.804,27.86 0.792,27.62 0.792,27.428 C0.78,27.248 0.78,27.104 0.78,26.984 C0.78,26.876 0.816,26.768 0.9,26.66 C0.972,26.564 1.092,26.516 1.26,26.516 C1.428,26.516 1.548,26.588 1.632,26.708 C1.704,26.828 1.752,26.972 1.752,27.128 L1.752,27.836 C1.788,27.776 1.824,27.704 1.872,27.632 C1.908,27.56 1.956,27.488 2.028,27.416 C2.148,27.248 2.28,27.116 2.424,27.02 C2.568,26.936 2.736,26.888 2.928,26.888 C3.216,26.888 3.468,26.972 3.696,27.14 C3.924,27.308 4.116,27.596 4.26,27.98 C4.392,27.596 4.572,27.284 4.8,27.032 C5.016,26.792 5.268,26.66 5.556,26.66 C5.724,26.66 5.892,26.708 6.06,26.78 C6.216,26.876 6.36,26.984 6.492,27.104 C6.66,27.284 6.804,27.488 6.924,27.716 C7.032,27.944 7.116,28.184 7.188,28.436 C7.248,28.7 7.296,28.952 7.32,29.204 C7.332,29.468 7.344,29.72 7.344,29.96 L7.344,31.556 Z M14.372,31.664 C14.372,31.904 14.324,32.06 14.252,32.156 C14.168,32.252 14.036,32.312 13.868,32.312 C13.652,32.312 13.508,32.252 13.424,32.156 C13.364,32.096 13.328,32.024 13.316,31.94 C13.292,31.868 13.292,31.712 13.292,31.496 C12.956,31.7 12.608,31.832 12.26,31.892 C11.912,31.952 11.6,31.976 11.336,31.976 C11,31.976 10.7,31.952 10.436,31.892 C10.148,31.832 9.908,31.748 9.704,31.628 C9.488,31.508 9.332,31.364 9.212,31.196 C9.092,31.04 9.044,30.86 9.044,30.644 C9.044,30.416 9.116,30.212 9.26,30.02 C9.404,29.852 9.596,29.696 9.836,29.564 C10.064,29.432 10.328,29.324 10.64,29.228 C10.94,29.132 11.252,29.06 11.576,28.988 C11.888,28.94 12.212,28.892 12.524,28.856 C12.824,28.832 13.1,28.808 13.352,28.784 C13.328,28.616 13.292,28.448 13.22,28.28 C13.148,28.112 13.064,27.968 12.944,27.836 C12.824,27.704 12.68,27.596 12.512,27.5 C12.344,27.428 12.152,27.38 11.936,27.38 C11.768,27.38 11.612,27.404 11.468,27.452 C11.312,27.5 11.168,27.548 11.048,27.62 C10.916,27.692 10.796,27.764 10.7,27.836 C10.592,27.908 10.508,27.98 10.436,28.04 C10.364,28.112 10.316,28.172 10.268,28.22 L10.088,28.4 C9.968,28.496 9.836,28.544 9.704,28.544 C9.572,28.544 9.464,28.496 9.38,28.4 C9.284,28.304 9.248,28.196 9.248,28.076 C9.248,27.908 9.332,27.728 9.524,27.548 C9.704,27.38 9.92,27.236 10.184,27.092 C10.328,27.02 10.484,26.948 10.652,26.888 C10.82,26.84 11,26.792 11.168,26.744 C11.336,26.708 11.492,26.684 11.648,26.66 C11.792,26.636 11.924,26.624 12.032,26.624 C12.392,26.624 12.716,26.696 13.004,26.828 C13.28,26.972 13.52,27.164 13.724,27.38 C13.916,27.62 14.06,27.872 14.168,28.16 C14.264,28.448 14.324,28.736 14.324,29.024 C14.324,29.312 14.324,29.6 14.348,29.876 C14.348,30.164 14.36,30.452 14.36,30.74 C14.36,30.908 14.36,31.064 14.372,31.208 L14.372,31.664 Z M13.352,29.444 C13.088,29.456 12.764,29.48 12.404,29.504 C12.02,29.54 11.66,29.6 11.324,29.684 C10.988,29.768 10.7,29.876 10.46,30.02 C10.22,30.176 10.1,30.368 10.1,30.596 C10.1,30.716 10.136,30.824 10.232,30.92 C10.316,31.016 10.424,31.1 10.556,31.172 C10.676,31.244 10.82,31.304 10.964,31.34 C11.108,31.376 11.252,31.388 11.384,31.388 C11.732,31.388 12.092,31.316 12.452,31.172 C12.812,31.028 13.1,30.824 13.316,30.56 L13.352,29.444 Z M17.608,31.88 C17.488,31.976 17.368,32.012 17.236,32.012 C17.14,32.012 17.044,31.976 16.948,31.904 C16.852,31.832 16.768,31.724 16.696,31.556 C16.624,31.4 16.564,31.196 16.528,30.932 C16.48,30.692 16.456,30.392 16.456,30.032 L16.456,29.588 C16.456,29.324 16.468,29.012 16.468,28.628 C16.468,28.256 16.468,27.848 16.48,27.404 C16.48,26.972 16.492,26.552 16.492,26.168 C16.492,25.784 16.492,25.46 16.504,25.184 L16.504,24.704 C16.504,24.62 16.492,24.5 16.48,24.344 C16.456,24.2 16.432,24.044 16.432,23.888 C16.564,23.804 16.684,23.744 16.792,23.708 C16.9,23.672 16.984,23.648 17.056,23.648 C17.212,23.648 17.368,23.708 17.536,23.816 C17.68,23.912 17.752,24.044 17.752,24.2 C17.752,24.272 17.728,24.38 17.68,24.5 L17.572,24.824 C17.524,24.944 17.5,25.052 17.488,25.172 C17.464,25.292 17.44,25.412 17.44,25.556 C17.416,25.7 17.416,25.868 17.416,26.06 C17.404,26.252 17.404,26.468 17.404,26.708 L17.404,28.928 C17.404,29.504 17.428,29.984 17.488,30.392 C17.536,30.8 17.596,31.112 17.692,31.328 C17.728,31.448 17.752,31.52 17.752,31.556 C17.752,31.7 17.704,31.808 17.608,31.88 Z M21.108,31.88 C20.988,31.976 20.868,32.012 20.736,32.012 C20.64,32.012 20.544,31.976 20.448,31.904 C20.352,31.832 20.268,31.724 20.196,31.556 C20.124,31.4 20.064,31.196 20.028,30.932 C19.98,30.692 19.956,30.392 19.956,30.032 L19.956,29.588 C19.956,29.324 19.968,29.012 19.968,28.628 C19.968,28.256 19.968,27.848 19.98,27.404 C19.98,26.972 19.992,26.552 19.992,26.168 C19.992,25.784 19.992,25.46 20.004,25.184 L20.004,24.704 C20.004,24.62 19.992,24.5 19.98,24.344 C19.956,24.2 19.932,24.044 19.932,23.888 C20.064,23.804 20.184,23.744 20.292,23.708 C20.4,23.672 20.484,23.648 20.556,23.648 C20.712,23.648 20.868,23.708 21.036,23.816 C21.18,23.912 21.252,24.044 21.252,24.2 C21.252,24.272 21.228,24.38 21.18,24.5 L21.072,24.824 C21.024,24.944 21,25.052 20.988,25.172 C20.964,25.292 20.94,25.412 20.94,25.556 C20.916,25.7 20.916,25.868 20.916,26.06 C20.904,26.252 20.904,26.468 20.904,26.708 L20.904,28.928 C20.904,29.504 20.928,29.984 20.988,30.392 C21.036,30.8 21.096,31.112 21.192,31.328 C21.228,31.448 21.252,31.52 21.252,31.556 C21.252,31.7 21.204,31.808 21.108,31.88 Z M24.932,31.532 C24.932,31.676 24.872,31.796 24.776,31.904 C24.656,32.012 24.464,32.072 24.2,32.072 C24.128,32.072 24.044,32.048 23.96,32.012 C23.876,31.976 23.78,31.916 23.672,31.844 C23.576,31.784 23.516,31.724 23.48,31.664 C23.444,31.616 23.432,31.544 23.432,31.472 C23.432,31.412 23.444,31.352 23.492,31.28 C23.528,31.22 23.576,31.16 23.648,31.1 C23.696,31.052 23.768,31.016 23.852,30.98 C23.924,30.956 24.008,30.932 24.092,30.932 C24.26,30.932 24.404,30.956 24.524,30.98 C24.632,31.028 24.716,31.076 24.776,31.124 C24.836,31.184 24.872,31.244 24.896,31.316 C24.92,31.388 24.932,31.46 24.932,31.532 Z M32.08,31.664 C32.08,31.904 32.032,32.06 31.96,32.156 C31.876,32.252 31.744,32.312 31.576,32.312 C31.36,32.312 31.216,32.252 31.132,32.156 C31.072,32.096 31.036,32.024 31.024,31.94 C31,31.868 31,31.712 31,31.496 C30.664,31.7 30.316,31.832 29.968,31.892 C29.62,31.952 29.308,31.976 29.044,31.976 C28.708,31.976 28.408,31.952 28.144,31.892 C27.856,31.832 27.616,31.748 27.412,31.628 C27.196,31.508 27.04,31.364 26.92,31.196 C26.8,31.04 26.752,30.86 26.752,30.644 C26.752,30.416 26.824,30.212 26.968,30.02 C27.112,29.852 27.304,29.696 27.544,29.564 C27.772,29.432 28.036,29.324 28.348,29.228 C28.648,29.132 28.96,29.06 29.284,28.988 C29.596,28.94 29.92,28.892 30.232,28.856 C30.532,28.832 30.808,28.808 31.06,28.784 C31.036,28.616 31,28.448 30.928,28.28 C30.856,28.112 30.772,27.968 30.652,27.836 C30.532,27.704 30.388,27.596 30.22,27.5 C30.052,27.428 29.86,27.38 29.644,27.38 C29.476,27.38 29.32,27.404 29.176,27.452 C29.02,27.5 28.876,27.548 28.756,27.62 C28.624,27.692 28.504,27.764 28.408,27.836 C28.3,27.908 28.216,27.98 28.144,28.04 C28.072,28.112 28.024,28.172 27.976,28.22 L27.796,28.4 C27.676,28.496 27.544,28.544 27.412,28.544 C27.28,28.544 27.172,28.496 27.088,28.4 C26.992,28.304 26.956,28.196 26.956,28.076 C26.956,27.908 27.04,27.728 27.232,27.548 C27.412,27.38 27.628,27.236 27.892,27.092 C28.036,27.02 28.192,26.948 28.36,26.888 C28.528,26.84 28.708,26.792 28.876,26.744 C29.044,26.708 29.2,26.684 29.356,26.66 C29.5,26.636 29.632,26.624 29.74,26.624 C30.1,26.624 30.424,26.696 30.712,26.828 C30.988,26.972 31.228,27.164 31.432,27.38 C31.624,27.62 31.768,27.872 31.876,28.16 C31.972,28.448 32.032,28.736 32.032,29.024 C32.032,29.312 32.032,29.6 32.056,29.876 C32.056,30.164 32.068,30.452 32.068,30.74 C32.068,30.908 32.068,31.064 32.08,31.208 L32.08,31.664 Z M31.06,29.444 C30.796,29.456 30.472,29.48 30.112,29.504 C29.728,29.54 29.368,29.6 29.032,29.684 C28.696,29.768 28.408,29.876 28.168,30.02 C27.928,30.176 27.808,30.368 27.808,30.596 C27.808,30.716 27.844,30.824 27.94,30.92 C28.024,31.016 28.132,31.1 28.264,31.172 C28.384,31.244 28.528,31.304 28.672,31.34 C28.816,31.376 28.96,31.388 29.092,31.388 C29.44,31.388 29.8,31.316 30.16,31.172 C30.52,31.028 30.808,30.824 31.024,30.56 L31.06,29.444 Z M38.784,30.032 C38.784,30.272 38.772,30.512 38.772,30.764 L38.772,31.496 C38.772,31.7 38.712,31.856 38.604,31.976 C38.484,32.096 38.328,32.156 38.124,32.156 C37.872,32.156 37.752,31.964 37.752,31.568 C37.752,31.52 37.752,31.472 37.776,31.4 C37.788,31.34 37.8,31.28 37.8,31.208 C37.8,31.124 37.8,30.992 37.812,30.8 L37.812,29.852 L37.788,29.432 L37.752,28.964 C37.728,28.796 37.716,28.652 37.692,28.508 C37.62,28.1 37.512,27.788 37.356,27.56 C37.188,27.344 36.996,27.224 36.792,27.224 C36.648,27.224 36.504,27.26 36.372,27.332 C36.24,27.416 36.108,27.524 35.988,27.644 C35.868,27.776 35.748,27.92 35.652,28.076 C35.544,28.244 35.448,28.424 35.376,28.592 C35.256,28.832 35.184,29.06 35.136,29.276 C35.088,29.504 35.064,29.696 35.064,29.84 C35.064,30.056 35.052,30.284 35.052,30.524 C35.04,30.764 35.04,30.992 35.04,31.208 C35.04,31.328 35.028,31.448 35.016,31.58 C34.992,31.724 34.944,31.844 34.86,31.928 L34.716,32.036 C34.656,32.06 34.584,32.084 34.512,32.084 C34.32,32.084 34.2,32.048 34.14,31.988 C34.068,31.916 34.032,31.832 34.032,31.712 C34.032,31.664 34.032,31.592 34.044,31.496 C34.056,31.412 34.068,31.304 34.08,31.16 C34.08,31.028 34.08,30.872 34.092,30.692 L34.092,28.304 L34.068,27.608 C34.068,27.44 34.056,27.26 34.032,27.068 C34.02,27.044 34.02,26.996 34.02,26.924 C34.02,26.816 34.08,26.72 34.212,26.636 C34.332,26.564 34.452,26.528 34.596,26.528 C34.776,26.528 34.896,26.576 34.968,26.648 C35.028,26.732 35.064,26.852 35.064,27.02 L35.064,27.164 C35.064,27.212 35.052,27.26 35.052,27.308 C35.052,27.38 35.04,27.452 35.04,27.548 C35.028,27.656 35.016,27.788 35.016,27.956 C35.208,27.524 35.46,27.188 35.796,26.948 C36.12,26.708 36.468,26.576 36.828,26.576 C36.96,26.576 37.104,26.6 37.26,26.636 C37.404,26.684 37.524,26.744 37.644,26.804 C37.812,26.9 37.956,27.02 38.1,27.14 C38.232,27.284 38.34,27.44 38.436,27.62 C38.532,27.8 38.604,28.004 38.664,28.244 C38.712,28.496 38.748,28.784 38.772,29.108 C38.772,29.264 38.784,29.42 38.784,29.564 L38.784,30.032 Z M44.528,31.28 C44.528,31.4 44.48,31.508 44.384,31.604 C44.288,31.724 44.18,31.808 44.072,31.868 C43.928,31.94 43.772,32 43.604,32.036 C43.424,32.072 43.28,32.096 43.16,32.096 C42.848,32.096 42.608,32.036 42.428,31.916 C42.236,31.796 42.08,31.652 41.972,31.46 C41.864,31.268 41.792,31.052 41.756,30.812 C41.708,30.584 41.696,30.356 41.696,30.116 C41.696,29.792 41.696,29.456 41.708,29.12 C41.708,28.784 41.708,28.424 41.72,28.028 L41.18,28.076 C41.012,28.1 40.868,28.112 40.748,28.112 C40.58,28.112 40.46,28.04 40.376,27.896 C40.28,27.752 40.244,27.608 40.244,27.44 C40.244,27.356 40.268,27.296 40.34,27.26 C40.412,27.236 40.496,27.212 40.616,27.212 C40.676,27.212 40.76,27.212 40.868,27.2 C40.976,27.2 41.084,27.188 41.204,27.188 L41.516,27.164 C41.612,27.164 41.696,27.152 41.744,27.152 C41.744,27.092 41.744,26.972 41.756,26.78 C41.756,26.612 41.756,26.42 41.768,26.228 C41.768,26.036 41.78,25.844 41.78,25.676 C41.78,25.508 41.792,25.4 41.792,25.352 C41.792,25.316 41.792,25.28 41.816,25.244 C41.828,25.208 41.84,25.184 41.852,25.172 C41.888,25.136 41.948,25.1 42.044,25.076 C42.116,25.052 42.2,25.04 42.296,25.04 C42.344,25.04 42.428,25.064 42.524,25.088 L42.776,25.196 C42.848,25.244 42.92,25.292 42.98,25.34 C43.04,25.4 43.076,25.448 43.076,25.496 C43.076,25.568 43.064,25.64 43.052,25.7 L43.016,25.916 C42.992,26 42.98,26.096 42.98,26.216 L42.932,26.576 L42.884,26.912 C42.872,27.02 42.86,27.092 42.86,27.14 L43.796,27.14 L44.036,27.164 C44.096,27.188 44.144,27.188 44.18,27.188 C44.24,27.212 44.3,27.224 44.372,27.248 C44.42,27.272 44.456,27.32 44.456,27.392 C44.456,27.488 44.396,27.572 44.276,27.62 C44.156,27.68 44.036,27.728 43.892,27.764 C43.724,27.812 43.532,27.848 43.316,27.872 L43.052,27.896 C42.956,27.908 42.872,27.92 42.812,27.92 C42.788,28.352 42.764,28.76 42.752,29.132 C42.728,29.516 42.728,29.9 42.728,30.272 C42.728,30.728 42.788,31.052 42.932,31.244 C43.064,31.436 43.232,31.532 43.448,31.532 C43.592,31.532 43.712,31.496 43.808,31.412 C43.808,31.412 43.82,31.388 43.844,31.364 C43.868,31.34 43.88,31.304 43.904,31.268 C43.928,31.208 43.964,31.148 44.012,31.1 C44.06,31.052 44.132,31.028 44.24,31.028 C44.324,31.028 44.396,31.052 44.444,31.1 C44.492,31.16 44.528,31.22 44.528,31.28 Z M50.68,30.836 C50.68,31.052 50.62,31.232 50.5,31.4 C50.368,31.568 50.188,31.712 49.972,31.82 C49.756,31.94 49.492,32.012 49.204,32.084 C48.892,32.132 48.568,32.168 48.232,32.168 C48.064,32.168 47.872,32.144 47.656,32.108 C47.428,32.072 47.2,32.024 46.984,31.964 C46.756,31.892 46.54,31.808 46.348,31.7 C46.156,31.604 46,31.484 45.892,31.34 C45.856,31.304 45.82,31.244 45.796,31.172 C45.76,31.1 45.748,31.052 45.748,31.004 C45.748,30.932 45.772,30.848 45.844,30.764 C45.916,30.692 46.024,30.644 46.168,30.644 C46.348,30.644 46.504,30.68 46.624,30.74 C46.744,30.812 46.852,30.92 46.972,31.064 C46.996,31.112 47.068,31.148 47.164,31.196 C47.248,31.256 47.356,31.304 47.476,31.34 C47.596,31.388 47.716,31.436 47.86,31.46 C48.004,31.484 48.136,31.496 48.28,31.496 C48.76,31.496 49.096,31.436 49.288,31.316 C49.48,31.196 49.576,31.076 49.576,30.944 C49.576,30.752 49.372,30.536 48.964,30.308 C48.82,30.236 48.676,30.164 48.508,30.092 C48.34,30.032 48.184,29.96 48.028,29.888 C47.908,29.84 47.8,29.78 47.692,29.732 C47.572,29.684 47.464,29.636 47.356,29.564 C47.2,29.492 47.056,29.408 46.912,29.312 C46.768,29.228 46.636,29.132 46.54,29.012 C46.42,28.904 46.336,28.772 46.276,28.628 C46.204,28.496 46.168,28.34 46.168,28.148 C46.168,27.98 46.204,27.812 46.276,27.62 C46.336,27.428 46.456,27.26 46.624,27.092 C46.792,26.948 47.02,26.816 47.308,26.708 C47.596,26.612 47.956,26.552 48.412,26.552 C48.532,26.552 48.676,26.564 48.82,26.588 C48.964,26.624 49.108,26.66 49.252,26.708 L49.648,26.852 L49.984,27.02 C50.152,27.14 50.296,27.248 50.428,27.356 C50.548,27.476 50.608,27.608 50.608,27.74 C50.608,27.836 50.56,27.932 50.476,28.004 C50.392,28.1 50.284,28.136 50.152,28.136 C50.008,28.136 49.876,28.088 49.744,27.98 C49.6,27.884 49.48,27.776 49.36,27.656 C49.264,27.584 49.132,27.5 48.964,27.404 C48.772,27.332 48.568,27.284 48.352,27.284 C48.172,27.284 48.016,27.308 47.884,27.356 C47.74,27.404 47.62,27.452 47.524,27.524 C47.428,27.596 47.356,27.68 47.308,27.764 C47.26,27.848 47.236,27.932 47.236,28.004 C47.236,28.22 47.308,28.388 47.452,28.532 C47.596,28.676 47.86,28.832 48.22,29 L49.084,29.408 C49.396,29.564 49.672,29.708 49.912,29.84 C50.128,29.96 50.32,30.104 50.464,30.26 C50.608,30.428 50.68,30.62 50.68,30.836 Z M56.184,31.28 C56.184,31.4 56.136,31.508 56.04,31.604 C55.944,31.724 55.836,31.808 55.728,31.868 C55.584,31.94 55.428,32 55.26,32.036 C55.08,32.072 54.936,32.096 54.816,32.096 C54.504,32.096 54.264,32.036 54.084,31.916 C53.892,31.796 53.736,31.652 53.628,31.46 C53.52,31.268 53.448,31.052 53.412,30.812 C53.364,30.584 53.352,30.356 53.352,30.116 C53.352,29.792 53.352,29.456 53.364,29.12 C53.364,28.784 53.364,28.424 53.376,28.028 L52.836,28.076 C52.668,28.1 52.524,28.112 52.404,28.112 C52.236,28.112 52.116,28.04 52.032,27.896 C51.936,27.752 51.9,27.608 51.9,27.44 C51.9,27.356 51.924,27.296 51.996,27.26 C52.068,27.236 52.152,27.212 52.272,27.212 C52.332,27.212 52.416,27.212 52.524,27.2 C52.632,27.2 52.74,27.188 52.86,27.188 L53.172,27.164 C53.268,27.164 53.352,27.152 53.4,27.152 C53.4,27.092 53.4,26.972 53.412,26.78 C53.412,26.612 53.412,26.42 53.424,26.228 C53.424,26.036 53.436,25.844 53.436,25.676 C53.436,25.508 53.448,25.4 53.448,25.352 C53.448,25.316 53.448,25.28 53.472,25.244 C53.484,25.208 53.496,25.184 53.508,25.172 C53.544,25.136 53.604,25.1 53.7,25.076 C53.772,25.052 53.856,25.04 53.952,25.04 C54,25.04 54.084,25.064 54.18,25.088 L54.432,25.196 C54.504,25.244 54.576,25.292 54.636,25.34 C54.696,25.4 54.732,25.448 54.732,25.496 C54.732,25.568 54.72,25.64 54.708,25.7 L54.672,25.916 C54.648,26 54.636,26.096 54.636,26.216 L54.588,26.576 L54.54,26.912 C54.528,27.02 54.516,27.092 54.516,27.14 L55.452,27.14 L55.692,27.164 C55.752,27.188 55.8,27.188 55.836,27.188 C55.896,27.212 55.956,27.224 56.028,27.248 C56.076,27.272 56.112,27.32 56.112,27.392 C56.112,27.488 56.052,27.572 55.932,27.62 C55.812,27.68 55.692,27.728 55.548,27.764 C55.38,27.812 55.188,27.848 54.972,27.872 L54.708,27.896 C54.612,27.908 54.528,27.92 54.468,27.92 C54.444,28.352 54.42,28.76 54.408,29.132 C54.384,29.516 54.384,29.9 54.384,30.272 C54.384,30.728 54.444,31.052 54.588,31.244 C54.72,31.436 54.888,31.532 55.104,31.532 C55.248,31.532 55.368,31.496 55.464,31.412 C55.464,31.412 55.476,31.388 55.5,31.364 C55.524,31.34 55.536,31.304 55.56,31.268 C55.584,31.208 55.62,31.148 55.668,31.1 C55.716,31.052 55.788,31.028 55.896,31.028 C55.98,31.028 56.052,31.052 56.1,31.1 C56.148,31.16 56.184,31.22 56.184,31.28 Z M62.156,31.712 C62.156,31.856 62.108,31.952 62.012,32.024 C61.904,32.096 61.784,32.144 61.652,32.144 C61.484,32.144 61.34,32.072 61.22,31.94 C61.1,31.82 60.992,31.58 60.908,31.244 C60.704,31.508 60.476,31.676 60.212,31.772 C59.948,31.868 59.72,31.916 59.54,31.916 C59.156,31.916 58.844,31.868 58.604,31.748 C58.34,31.652 58.136,31.496 57.992,31.28 C57.836,31.076 57.728,30.824 57.668,30.524 C57.596,30.224 57.56,29.876 57.56,29.492 C57.56,29.444 57.56,29.348 57.572,29.18 C57.572,29.036 57.572,28.856 57.584,28.664 C57.584,28.472 57.596,28.292 57.596,28.1 C57.596,27.92 57.608,27.776 57.608,27.68 C57.608,27.536 57.596,27.38 57.572,27.224 C57.548,27.08 57.536,26.96 57.524,26.864 C57.788,26.684 58.004,26.588 58.16,26.588 C58.316,26.588 58.448,26.636 58.544,26.732 C58.64,26.828 58.688,26.924 58.688,27.02 C58.688,27.14 58.676,27.236 58.676,27.308 L58.64,27.512 L58.592,27.956 C58.568,28.112 58.568,28.22 58.568,28.292 C58.568,28.34 58.556,28.436 58.556,28.58 L58.556,29.48 C58.544,29.624 58.544,29.708 58.544,29.744 C58.544,29.96 58.568,30.152 58.616,30.332 C58.664,30.524 58.724,30.68 58.82,30.812 C58.904,30.956 59.012,31.064 59.156,31.136 C59.276,31.22 59.42,31.256 59.588,31.256 C59.804,31.256 59.996,31.196 60.164,31.076 C60.32,30.968 60.452,30.824 60.572,30.644 C60.668,30.464 60.752,30.26 60.812,30.044 C60.872,29.84 60.908,29.636 60.92,29.444 C60.92,29.228 60.932,29.012 60.932,28.784 C60.932,28.568 60.944,28.364 60.944,28.172 C60.944,28.004 60.932,27.848 60.932,27.716 L60.932,27.5 C60.932,27.26 60.932,27.092 60.956,26.996 C60.98,26.9 61.004,26.828 61.052,26.768 C61.076,26.72 61.124,26.696 61.196,26.672 C61.244,26.66 61.292,26.648 61.34,26.648 C61.364,26.648 61.412,26.66 61.508,26.684 C61.604,26.708 61.676,26.744 61.748,26.768 C61.82,26.816 61.892,26.876 61.964,26.936 C62.012,27.008 62.048,27.056 62.048,27.104 C62.048,27.164 62.036,27.236 62.036,27.308 C62.012,27.38 62,27.464 61.988,27.548 C61.964,27.68 61.94,27.8 61.94,27.896 C61.928,28.004 61.916,28.124 61.904,28.256 C61.892,28.328 61.88,28.436 61.88,28.556 C61.868,28.676 61.868,28.796 61.868,28.916 L61.844,29.252 L61.844,29.468 C61.844,29.744 61.844,29.984 61.856,30.176 C61.856,30.38 61.868,30.56 61.892,30.704 C61.904,30.86 61.928,30.992 61.964,31.112 C61.988,31.232 62.024,31.352 62.072,31.46 C62.072,31.484 62.096,31.52 62.12,31.58 C62.144,31.652 62.156,31.7 62.156,31.712 Z M65.596,31.532 C65.596,31.676 65.536,31.796 65.44,31.904 C65.32,32.012 65.128,32.072 64.864,32.072 C64.792,32.072 64.708,32.048 64.624,32.012 C64.54,31.976 64.444,31.916 64.336,31.844 C64.24,31.784 64.18,31.724 64.144,31.664 C64.108,31.616 64.096,31.544 64.096,31.472 C64.096,31.412 64.108,31.352 64.156,31.28 C64.192,31.22 64.24,31.16 64.312,31.1 C64.36,31.052 64.432,31.016 64.516,30.98 C64.588,30.956 64.672,30.932 64.756,30.932 C64.924,30.932 65.068,30.956 65.188,30.98 C65.296,31.028 65.38,31.076 65.44,31.124 C65.5,31.184 65.536,31.244 65.56,31.316 C65.584,31.388 65.596,31.46 65.596,31.532 Z M72.456,30.716 C72.456,30.824 72.396,30.932 72.3,31.028 C72.192,31.148 72.036,31.292 71.832,31.46 C71.544,31.7 71.244,31.868 70.92,31.94 C70.596,32.012 70.272,32.048 69.948,32.048 C69.588,32.048 69.264,32 68.952,31.916 C68.64,31.832 68.376,31.7 68.16,31.52 C67.92,31.352 67.74,31.124 67.608,30.86 C67.476,30.608 67.416,30.308 67.416,29.96 C67.416,29.576 67.476,29.18 67.608,28.772 C67.728,28.364 67.908,27.992 68.148,27.656 C68.376,27.32 68.652,27.044 68.976,26.828 C69.3,26.624 69.66,26.516 70.056,26.516 C70.38,26.516 70.704,26.564 71.016,26.66 C71.328,26.756 71.652,26.924 71.976,27.188 C72.072,27.284 72.168,27.38 72.252,27.476 C72.324,27.584 72.372,27.692 72.372,27.788 C72.372,27.908 72.324,28.016 72.24,28.1 C72.144,28.196 72.048,28.232 71.94,28.232 C71.856,28.232 71.76,28.196 71.64,28.124 C71.52,28.052 71.436,27.98 71.364,27.896 C71.172,27.692 70.992,27.536 70.824,27.428 C70.656,27.332 70.452,27.284 70.224,27.284 C69.936,27.284 69.696,27.38 69.48,27.572 C69.264,27.764 69.096,28.004 68.952,28.268 C68.808,28.556 68.712,28.844 68.64,29.156 C68.568,29.468 68.532,29.732 68.532,29.972 C68.532,30.5 68.664,30.86 68.928,31.076 C69.18,31.304 69.504,31.412 69.9,31.412 C70.272,31.412 70.608,31.328 70.896,31.136 C71.172,30.956 71.376,30.752 71.52,30.512 C71.592,30.38 71.664,30.296 71.736,30.26 C71.808,30.224 71.868,30.2 71.928,30.2 C71.964,30.2 72.024,30.212 72.096,30.236 C72.168,30.26 72.228,30.308 72.288,30.368 C72.396,30.488 72.456,30.608 72.456,30.716 Z M79.124,29.324 C79.124,29.732 79.052,30.104 78.92,30.452 C78.776,30.812 78.596,31.136 78.356,31.4 C78.116,31.676 77.828,31.892 77.492,32.036 C77.156,32.192 76.784,32.276 76.388,32.276 C76.028,32.276 75.704,32.204 75.404,32.084 C75.104,31.964 74.84,31.772 74.624,31.532 C74.396,31.304 74.228,31.028 74.108,30.692 C73.976,30.356 73.916,29.996 73.916,29.588 C73.916,29.18 73.976,28.796 74.108,28.424 C74.228,28.064 74.396,27.74 74.612,27.452 C74.828,27.176 75.092,26.948 75.392,26.78 C75.68,26.624 76.004,26.54 76.352,26.54 C76.784,26.54 77.168,26.612 77.516,26.732 C77.852,26.876 78.14,27.056 78.38,27.296 C78.62,27.536 78.8,27.836 78.932,28.172 C79.052,28.52 79.124,28.904 79.124,29.324 Z M78.284,29.168 C78.284,28.856 78.236,28.58 78.14,28.34 C78.044,28.124 77.912,27.932 77.756,27.776 C77.6,27.632 77.42,27.512 77.228,27.44 C77.012,27.368 76.808,27.332 76.604,27.332 C76.364,27.332 76.148,27.392 75.944,27.512 C75.728,27.632 75.548,27.8 75.404,28.004 C75.236,28.22 75.116,28.472 75.02,28.748 C74.924,29.024 74.876,29.312 74.876,29.624 C74.876,29.888 74.9,30.14 74.972,30.356 C75.032,30.596 75.128,30.788 75.26,30.956 C75.38,31.124 75.548,31.256 75.74,31.34 C75.932,31.436 76.16,31.484 76.424,31.484 C76.664,31.484 76.904,31.436 77.132,31.316 C77.36,31.208 77.564,31.052 77.732,30.836 C77.9,30.644 78.032,30.404 78.14,30.116 C78.236,29.828 78.284,29.516 78.284,29.168 Z M87.448,31.556 C87.448,31.772 87.388,31.928 87.28,32.036 C87.16,32.144 87.004,32.204 86.788,32.204 C86.74,32.204 86.692,32.18 86.644,32.156 C86.584,32.108 86.536,32.072 86.488,32.024 C86.428,31.976 86.38,31.928 86.344,31.868 C86.296,31.82 86.284,31.784 86.284,31.736 C86.284,31.712 86.296,31.664 86.344,31.616 C86.368,31.568 86.404,31.532 86.428,31.508 C86.44,31.46 86.452,31.352 86.464,31.184 C86.476,31.028 86.488,30.884 86.488,30.74 L86.488,30.512 C86.488,30.404 86.476,30.26 86.476,30.092 L86.452,29.564 C86.44,29.372 86.428,29.18 86.404,28.988 C86.38,28.772 86.344,28.568 86.308,28.364 C86.26,28.172 86.212,28.004 86.152,27.86 C86.092,27.716 86.032,27.608 85.96,27.524 C85.876,27.44 85.792,27.392 85.72,27.392 C85.552,27.392 85.396,27.488 85.264,27.668 C85.12,27.848 85.012,28.052 84.928,28.292 C84.832,28.532 84.76,28.784 84.712,29.024 C84.664,29.276 84.64,29.468 84.64,29.6 L84.64,30.128 C84.64,30.248 84.652,30.356 84.652,30.452 L84.652,30.644 C84.652,30.668 84.652,30.716 84.664,30.788 L84.664,31.016 C84.664,31.112 84.676,31.196 84.676,31.268 L84.676,31.436 C84.676,31.58 84.604,31.688 84.484,31.772 C84.352,31.868 84.232,31.916 84.124,31.916 C84.04,31.916 83.968,31.892 83.92,31.832 C83.86,31.784 83.812,31.712 83.788,31.628 C83.752,31.556 83.728,31.472 83.716,31.376 C83.692,31.292 83.692,31.22 83.692,31.16 C83.692,31.136 83.68,31.052 83.68,30.92 C83.68,30.8 83.668,30.644 83.668,30.476 L83.644,29.996 C83.632,29.828 83.632,29.696 83.632,29.576 C83.632,29.516 83.62,29.372 83.62,29.156 C83.608,28.952 83.584,28.736 83.56,28.496 C83.512,28.232 83.452,28.004 83.368,27.812 C83.272,27.644 83.176,27.548 83.068,27.548 C82.948,27.548 82.816,27.62 82.648,27.74 C82.468,27.884 82.324,28.052 82.216,28.268 C82.12,28.46 82.048,28.64 82,28.832 C81.94,29.024 81.916,29.18 81.916,29.276 L81.916,29.564 C81.916,29.708 81.904,29.864 81.904,30.02 L81.904,30.776 C81.904,31.04 81.892,31.256 81.868,31.436 C81.844,31.628 81.808,31.748 81.784,31.796 C81.724,31.88 81.652,31.94 81.568,31.988 C81.472,32.036 81.376,32.072 81.292,32.072 C81.196,32.072 81.088,32.036 80.992,31.988 C80.884,31.94 80.824,31.88 80.824,31.796 C80.836,31.736 80.848,31.676 80.848,31.604 C80.848,31.532 80.86,31.472 80.884,31.4 L80.92,30.896 C80.932,30.728 80.944,30.584 80.944,30.464 L80.944,28.892 L80.92,28.148 C80.908,27.86 80.896,27.62 80.896,27.428 C80.884,27.248 80.884,27.104 80.884,26.984 C80.884,26.876 80.92,26.768 81.004,26.66 C81.076,26.564 81.196,26.516 81.364,26.516 C81.532,26.516 81.652,26.588 81.736,26.708 C81.808,26.828 81.856,26.972 81.856,27.128 L81.856,27.836 C81.892,27.776 81.928,27.704 81.976,27.632 C82.012,27.56 82.06,27.488 82.132,27.416 C82.252,27.248 82.384,27.116 82.528,27.02 C82.672,26.936 82.84,26.888 83.032,26.888 C83.32,26.888 83.572,26.972 83.8,27.14 C84.028,27.308 84.22,27.596 84.364,27.98 C84.496,27.596 84.676,27.284 84.904,27.032 C85.12,26.792 85.372,26.66 85.66,26.66 C85.828,26.66 85.996,26.708 86.164,26.78 C86.32,26.876 86.464,26.984 86.596,27.104 C86.764,27.284 86.908,27.488 87.028,27.716 C87.136,27.944 87.22,28.184 87.292,28.436 C87.352,28.7 87.4,28.952 87.424,29.204 C87.436,29.468 87.448,29.72 87.448,29.96 L87.448,31.556 Z" id="path-2"></path>
    </defs>
    <g id="-PC" stroke="none" stroke-width="1" fill="none" fill-rule="evenodd">
        <g id="" transform="translate(-40.000000, -23.000000)">
            <g id="Top">
                <g id="Brand" transform="translate(40.000000, 24.000000)">
                    <g id="Logo">
                        <g id="">
                            <use fill="#434343" xlink:href="#path-1"></use>
                            <use fill="#FF4401" xlink:href="#path-1"></use>
                        </g>
                        <g id="mall.antstu.com">
                            <use fill="#434343" xlink:href="#path-2"></use>
                            <use fill="#FF4401" xlink:href="#path-2"></use>
                        </g>
                    </g>
                </g>
            </g>
        </g>
    </g>
</svg>