<?xml version="1.0" encoding="UTF-8"?>
<svg width="24px" height="24px" viewBox="0 0 24 24" version="1.1" xmlns="http://www.w3.org/2000/svg" xmlns:xlink="http://www.w3.org/1999/xlink">
    <!-- Generator: Sketch 52.2 (67145) - http://www.bohemiancoding.com/sketch -->
    <title>Combined Shape</title>
    <desc>Created with Sketch.</desc>
    <g id="会员-PC" stroke="none" stroke-width="1" fill="none" fill-rule="evenodd">
        <g id="账号密码登录" transform="translate(-1013.000000, -504.000000)" fill="#50B674">
            <g transform="translate(914.000000, 116.000000)" id="其他登录">
                <g transform="translate(0.000000, 348.000000)">
                    <g transform="translate(30.000000, 15.000000)" id="Combined-Shape">
                        <path d="M76.4836364,34.0327273 C76.4836364,33.5989327 76.8352963,33.2472727 77.2690909,33.2472727 C77.7028855,33.2472727 78.0545455,33.5989327 78.0545455,34.0327273 C78.0545455,34.4665219 77.7028855,34.8181818 77.2690909,34.8181818 C76.8352963,34.8181818 76.4836364,34.4665219 76.4836364,34.0327273 Z M79.9963636,34.0109091 C79.9963636,33.5771145 80.3480236,33.2254546 80.7818182,33.2254546 C81.2156127,33.2254546 81.5672727,33.5771145 81.5672727,34.0109091 C81.5672727,34.4447037 81.2156127,34.7963636 80.7818182,34.7963636 C80.3480236,34.7963636 79.9963636,34.4447037 79.9963636,34.0109091 Z M81.96,37.5236364 C81.96,37.2223901 82.2042083,36.9781818 82.5054546,36.9781818 C82.8067008,36.9781818 83.0509091,37.2223901 83.0509091,37.5236364 C83.0509091,37.8248826 82.8067008,38.0690909 82.5054546,38.0690909 C82.2042083,38.0690909 81.96,37.8248826 81.96,37.5236364 Z M84.7309091,37.5672727 C84.7309091,37.2660265 84.9751174,37.0218182 85.2763636,37.0218182 C85.5776099,37.0218182 85.8218182,37.2660265 85.8218182,37.5672727 C85.8218182,37.8685189 85.5776099,38.1127273 85.2763636,38.1127273 C84.9751174,38.1127273 84.7309091,37.8685189 84.7309091,37.5672727 Z M81,25 C87.6327273,25 93,30.3672727 93,37 C93,43.6327273 87.6327273,49 81,49 C74.3672727,49 69,43.6327273 69,37 C69,30.3672727 74.3672727,25 81,25 Z M78.9490909,39.7709091 C79.1018182,39.7709091 79.2545454,39.7490909 79.4290909,39.7490909 C79.3418182,39.4218182 79.2763636,39.0727273 79.2763636,38.7018182 C79.2763636,36.4981818 81.1527273,34.7090909 83.5527273,34.7090909 C83.7054546,34.7090909 83.88,34.7090909 84.0327273,34.7309091 C83.5963636,32.7018182 81.4145454,31.1963636 78.9490909,31.1963636 C76.1781818,31.1963636 73.9090909,33.0727273 73.9090909,35.4727273 C73.9090909,36.8690909 74.6509091,38.0036364 75.9163636,38.8763636 L75.4145455,40.3818182 L77.1818182,39.5090909 C77.8145454,39.64 78.3163636,39.7709091 78.9490909,39.7709091 Z M86.3236364,41.5381818 C87.3490909,40.7745455 88.0909091,39.7709091 88.0909091,38.6581818 C88.0909091,36.6509091 86.0836364,35.0145455 83.8145455,35.0145455 C81.4145455,35.0145455 79.5381818,36.6509091 79.5381818,38.6581818 C79.5381818,40.6654545 81.4145455,42.3018182 83.8145455,42.3018182 C84.3163636,42.3018182 84.8181818,42.1709091 85.32,42.04 L86.6945455,42.8036364 L86.3236364,41.5381818 Z"></path>
                    </g>
                </g>
            </g>
        </g>
    </g>
</svg>