<?xml version="1.0" encoding="UTF-8"?>
<svg width="24px" height="24px" viewBox="0 0 24 24" version="1.1" xmlns="http://www.w3.org/2000/svg" xmlns:xlink="http://www.w3.org/1999/xlink">
    <!-- Generator: Sketch 52.2 (67145) - http://www.bohemiancoding.com/sketch -->
    <title>QQ</title>
    <desc>Created with Sketch.</desc>
    <g id="会员-PC" stroke="none" stroke-width="1" fill="none" fill-rule="evenodd">
        <g id="账号密码登录" transform="translate(-979.000000, -504.000000)" fill="#5EAADE">
            <g transform="translate(914.000000, 116.000000)" id="其他登录">
                <g transform="translate(0.000000, 348.000000)">
                    <g transform="translate(30.000000, 15.000000)" id="QQ">
                        <path d="M47,49 C40.372583,49 35,43.627417 35,37 C35,30.372583 40.372583,25 47,25 C53.627417,25 59,30.372583 59,37 C59,43.627417 53.627417,49 47,49 Z M52.7580532,40.304533 C52.6735328,39.2434639 52.1142399,38.0621527 51.8845299,37.4687282 L51.2932163,35.9412755 C51.2744371,35.3058787 51.4622296,33.8441671 50.4762775,32.015698 C49.4903254,30.1872289 47.5090179,30.0224101 47.1428086,30.0036308 C46.7765994,29.9848516 44.4854204,29.9660723 43.3586102,31.9567558 C42.2317999,33.9474393 42.5354207,35.9412755 42.5354207,35.9412755 L41.9055617,37.4802699 C41.9055343,37.4803247 41.612057,38.1823948 41.3585508,39.0368647 C41.1050171,39.891362 40.8514834,41.2341474 41.1050171,41.5064603 C41.3585507,41.7787733 42.2787617,40.2575712 42.3632821,40.1167405 C42.3632821,40.1167405 42.4290232,40.8444709 42.6027245,41.2247715 L42.6244098,41.2723364 L42.6332648,41.2916914 L42.6434083,41.3138153 L42.6514409,41.3312786 L42.663339,41.3569939 L42.6687672,41.3686452 C42.6855985,41.404703 42.7027151,41.4406269 42.7201154,41.4764135 L42.7251598,41.4867489 C42.7313556,41.4994147 42.7376884,41.5122723 42.7442132,41.5253767 L42.7481061,41.5331899 C42.9324992,41.9028808 43.2464281,42.4388162 43.7506717,42.8832129 L43.7511378,42.8836241 L43.719446,42.893987 C43.4338368,42.98813 42.8708155,43.1941261 42.6317021,43.4246586 C42.5857272,43.4689886 42.5517052,43.5142233 42.5339678,43.5597596 C42.3900117,43.9290941 42.6466433,43.9729307 43.0848717,43.9979605 C43.5230726,44.0229904 45.626459,44.0793556 46.6343157,43.9384975 C46.6452269,43.9369896 46.6553978,43.9354544 46.6656784,43.9339192 C46.7382459,43.9364413 46.8082089,43.9377298 46.8752933,43.9382233 L46.8793507,43.9382507 C46.9017213,43.9383878 46.9238727,43.93847 46.9456127,43.93847 C46.958909,43.93847 46.972781,43.9384152 46.9868997,43.9383055 L46.9925197,43.9382781 C47.0412825,43.9379261 47.0900392,43.9369757 47.1387786,43.935427 C47.145742,43.9364413 47.1523765,43.9374557 47.159614,43.93847 C48.1674981,44.0793282 50.2708571,44.0229904 50.7090581,43.9979331 C51.147259,43.9729032 51.403918,43.9290667 51.2599345,43.5597322 C51.1447642,43.2642262 50.344905,42.980865 50.0294409,42.8792925 C50.10311,42.8138559 50.1741964,42.745568 50.2425375,42.6745849 L50.2488703,42.6680327 C50.2717726,42.6442112 50.2943645,42.6200931 50.3166401,42.5956846 C51.4528263,41.3467955 51.35893,40.5580393 51.4058918,40.1073097 C51.4058918,40.1073097 52.3637984,41.4876536 52.5703155,41.5346155 C52.7768324,41.5815774 52.8425736,41.3656296 52.7580532,40.304533 Z"></path>
                    </g>
                </g>
            </g>
        </g>
    </g>
</svg>