<?xml version="1.0" encoding="UTF-8"?>
<svg width="15px" height="20px" viewBox="0 0 15 20" version="1.1" xmlns="http://www.w3.org/2000/svg" xmlns:xlink="http://www.w3.org/1999/xlink">
    <!-- Generator: Sketch 52.2 (67145) - http://www.bohemiancoding.com/sketch -->
    <title>Shape</title>
    <desc>Created with Sketch.</desc>
    <g id="会员-PC" stroke="none" stroke-width="1" fill="none" fill-rule="evenodd">
        <g id="手机动态登录" transform="translate(-957.000000, -214.000000)" fill="#FFFFFF" fill-rule="nonzero">
            <g transform="translate(914.000000, 116.000000)" id="手机号">
                <g transform="translate(30.000000, 89.000000)">
                    <path d="M25.6339286,9 L14.6517857,9 C13.7395312,9 13,9.73953125 13,10.6517857 L13,27.3482143 C13,28.2604688 13.7395312,29 14.6517857,29 L25.6339286,29 C26.546183,29 27.2857143,28.2604688 27.2857143,27.3482143 L27.2857143,10.6517857 C27.2857143,9.73953125 26.546183,9 25.6339286,9 Z M20.8348214,27.5714286 L19.40625,27.5714286 C19.0117634,27.5714286 18.6919643,27.2516295 18.6919643,26.8571429 C18.6919643,26.4626562 19.0117634,26.1428571 19.40625,26.1428571 L20.8348214,26.1428571 C21.229308,26.1428571 21.5491071,26.4626562 21.5491071,26.8571429 C21.5491071,27.2516295 21.229308,27.5714286 20.8348214,27.5714286 Z M25.8348214,24.3125 C25.8348214,24.5343973 25.654933,24.7142857 25.4330357,24.7142857 L14.8080357,24.7142857 C14.5861384,24.7142857 14.40625,24.5343973 14.40625,24.3125 L14.40625,10.8303571 C14.40625,10.6084598 14.5861384,10.4285714 14.8080357,10.4285714 L25.4330357,10.4285714 C25.654933,10.4285714 25.8348214,10.6084598 25.8348214,10.8303571 L25.8348214,24.3125 Z" id="Shape"></path>
                </g>
            </g>
        </g>
    </g>
</svg>