<?xml version="1.0" encoding="UTF-8"?>
<svg width="16px" height="18px" viewBox="0 0 16 18" version="1.1" xmlns="http://www.w3.org/2000/svg" xmlns:xlink="http://www.w3.org/1999/xlink">
    <!-- Generator: Sketch 52.2 (67145) - http://www.bohemiancoding.com/sketch -->
    <title>Shape</title>
    <desc>Created with Sketch.</desc>
    <g id="会员-PC" stroke="none" stroke-width="1" fill="none" fill-rule="evenodd">
        <g id="手机动态登录" transform="translate(-956.000000, -327.000000)" fill="#FFFFFF" fill-rule="nonzero">
            <g transform="translate(914.000000, 116.000000)" id="验证码">
                <g transform="translate(30.000000, 201.000000)">
                    <path d="M27.9177901,13.8351606 C27.8613036,13.2805527 27.4525646,12.8261805 26.9070049,12.7115275 C25.8009959,12.5376513 24.7085896,12.2861804 23.6378763,11.9589771 C22.5893504,11.5289757 21.6061797,10.9543137 20.716984,10.2517194 C20.2507064,9.91609354 19.6220831,9.91609354 19.1558055,10.2517194 C18.3140711,11.0302126 17.3083373,11.6098522 16.2127589,11.9479 C15.1983128,12.36735 14.126676,12.6322254 13.0336317,12.7336817 C12.4761041,12.823769 12.058542,13.2930926 12.0339236,13.8573148 C12.0339236,13.8573148 12,16.6771287 12,19.159091 C12,23.6522389 17.3017761,28 19.9533565,28 C22.6042446,28 27.0980849,24.9330284 27.8167116,19.2269382 C27.9967145,15.8567311 27.8720971,13.8462377 27.8720971,13.8462377 L27.9177901,13.8344683 L27.9177901,13.8351606 Z M25.0308214,17.305754 L19.4922723,22.5292981 C19.2430376,22.7667634 18.8622624,22.8041486 18.5714885,22.6192995 L18.4261016,22.4953745 L15.3702071,19.3169396 C15.0847776,19.0068481 15.1047701,18.5240829 15.4148617,18.2386533 C15.7249532,17.9532238 16.2077184,17.9732164 16.493148,18.2833079 L19.0097262,20.9231189 L23.9971897,16.2049673 C24.1979074,16.0203268 24.4818828,15.9567936 24.7421451,16.0383 C25.0024073,16.1198063 25.1994164,16.3339696 25.2589609,16.6001165 C25.3185055,16.8662635 25.2315392,17.14396 25.0308214,17.3286005 L25.0308214,17.305754 Z" id="Shape"></path>
                </g>
            </g>
        </g>
    </g>
</svg>