<?xml version="1.0" encoding="UTF-8"?>
<svg width="11px" height="11px" viewBox="0 0 11 11" version="1.1" xmlns="http://www.w3.org/2000/svg" xmlns:xlink="http://www.w3.org/1999/xlink">
    <!-- Generator: Sketch 52.2 (67145) - http://www.bohemiancoding.com/sketch -->
    <title>Shape</title>
    <desc>Created with Sketch.</desc>
    <g id="会员-PC" stroke="none" stroke-width="1" fill="none" fill-rule="evenodd">
        <g id="账号密码登录" transform="translate(-954.000000, -194.000000)" fill="#F2620E" fill-rule="nonzero">
            <g transform="translate(914.000000, 116.000000)" id="Group-2">
                <g transform="translate(30.000000, 72.000000)">
                    <path d="M17.3778571,12.9535714 C17.4906705,13.0654607 17.5249783,13.2342883 17.4647838,13.3813349 C17.4045893,13.5283814 17.2617459,13.6246909 17.1028571,13.6253571 C16.9984345,13.6259609 16.8980681,13.5849661 16.8239286,13.5114286 L15.4332143,12.1207143 L14.0464286,13.5114286 C13.972289,13.5849661 13.8719226,13.6259609 13.7675,13.6253571 C13.6630774,13.6259609 13.562711,13.5849661 13.4885714,13.5114286 C13.4141986,13.4376631 13.3723649,13.3372505 13.3723649,13.2325 C13.3723649,13.1277495 13.4141986,13.0273369 13.4885714,12.9535714 L14.8792857,11.5667857 L13.4885714,10.1760714 C13.3362514,10.0228424 13.3362514,9.77537186 13.4885714,9.62214286 C13.5623369,9.54777003 13.6627495,9.50593637 13.7675,9.50593637 C13.8722505,9.50593637 13.9726631,9.54777003 14.0464286,9.62214286 L15.4332143,11.0089286 L16.8239286,9.62214286 C16.9199389,9.51003079 17.0706894,9.46119638 17.2142003,9.49571745 C17.3577113,9.53023851 17.4697615,9.64228875 17.5042826,9.78579969 C17.5388036,9.92931063 17.4899692,10.0800611 17.3778571,10.1760714 L15.9910714,11.5667857 L17.3778571,12.9535714 Z M15.5,6 C12.4624339,6 10,8.46243388 10,11.5 C10,14.5375661 12.4624339,17 15.5,17 C18.5375661,17 21,14.5375661 21,11.5 C21,10.0413093 20.4205374,8.64236278 19.3890873,7.6109127 C18.3576372,6.57946262 16.9586907,6 15.5,6 Z" id="Shape"></path>
                </g>
            </g>
        </g>
    </g>
</svg>