<?xml version="1.0" encoding="UTF-8"?>
<svg width="16px" height="20px" viewBox="0 0 16 20" version="1.1" xmlns="http://www.w3.org/2000/svg" xmlns:xlink="http://www.w3.org/1999/xlink">
    <!-- Generator: Sketch 52.2 (67145) - http://www.bohemiancoding.com/sketch -->
    <title>Path</title>
    <desc>Created with Sketch.</desc>
    <g id="会员-PC" stroke="none" stroke-width="1" fill="none" fill-rule="evenodd">
        <g id="账号密码登录" transform="translate(-956.000000, -214.000000)" fill="#FFFFFF">
            <g transform="translate(914.000000, 116.000000)" id="账号">
                <g transform="translate(30.000000, 89.000000)">
                    <path d="M21.52,18.36 C23.44,17.72 24.8,15.92 24.8,13.8 C24.8,11.16 22.64,9 20,9 C17.36,9 15.2,11.16 15.2,13.8 C15.2,15.92 16.56,17.72 18.48,18.36 C15.08,19.04 12,21.92 12,25.4 C12,26.96 13.24,28.2 14.8,28.2 L25.2,28.2 C26.76,28.2 28,26.96 28,25.4 C28,21.92 24.92,19.04 21.52,18.36 Z" id="Path"></path>
                </g>
            </g>
        </g>
    </g>
</svg>