<?xml version="1.0" encoding="UTF-8"?>
<svg width="24px" height="24px" viewBox="0 0 24 24" version="1.1" xmlns="http://www.w3.org/2000/svg" xmlns:xlink="http://www.w3.org/1999/xlink">
    <!-- Generator: Sketch 52.2 (67145) - http://www.bohemiancoding.com/sketch -->
    <title>Weibo</title>
    <desc>Created with Sketch.</desc>
    <g id="会员-PC" stroke="none" stroke-width="1" fill="none" fill-rule="evenodd">
        <g id="账号密码登录" transform="translate(-945.000000, -504.000000)" fill="#EA5D5C" fill-rule="nonzero">
            <g transform="translate(914.000000, 116.000000)" id="其他登录">
                <g transform="translate(0.000000, 348.000000)">
                    <g transform="translate(30.000000, 15.000000)" id="Weibo">
                        <path d="M11.5163636,36.3018182 C13.7636364,36.1927273 15.5963636,37.1527273 15.6181818,38.6581818 C15.6181818,40.1854545 13.7854545,41.6254546 11.5163636,41.7345455 C9.24727274,41.8436364 7.41454546,40.6872727 7.41454546,39.16 C7.41454546,37.6327273 9.24727274,36.4109091 11.5163636,36.3018182 Z M13.0436364,40.1636364 C13.7418182,39.2472727 13.3272727,37.0436364 11.0363636,37.3272727 C8.76727272,37.5890909 9.0290909,39.7490909 9.0290909,39.7490909 C9.0290909,39.7490909 9.00727272,40.4254546 9.64,40.7745455 C10.9709091,41.5163636 12.3454545,41.08 13.0436364,40.1636364 Z M11.5163636,38.7018182 C11.6909091,38.5927273 11.8654546,38.6145454 11.9309091,38.7454545 C12.0181818,38.8763636 11.9527273,39.0727273 11.8218182,39.1818182 C11.6909091,39.2909091 11.4945454,39.2690909 11.4290909,39.1381818 C11.3418182,39.0072727 11.3636364,38.8109091 11.5163636,38.7018182 Z M10.4472727,39.0072727 C10.9272727,38.9636364 11.2545455,39.2472727 11.2545455,39.6181818 C11.2545455,39.9890909 10.9054546,40.3163636 10.4909091,40.36 C10.0763636,40.4036364 9.72727272,40.1418182 9.72727272,39.7927273 C9.72727272,39.4218182 10.0109091,39.0509091 10.4472727,39.0072727 Z M13,25 C19.6327273,25 25,30.3672727 25,37 C25,43.6327273 19.6327273,49 13,49 C6.36727272,49 1,43.6327273 1,37 C1,30.3672727 6.36727272,25 13,25 Z M17.6254545,39.6836364 C18.5636364,37.6763636 16.8618182,36.8909091 16.36,36.8036364 C15.8145455,36.6945455 16.0763637,36.4109091 16.0763636,36.4109091 C16.0763636,36.4109091 16.6,35.5163636 15.9672727,34.8836364 C15.1818182,34.0981818 13.2836364,34.9927273 13.2836364,34.9927273 C12.5636364,35.2109091 12.7381818,34.8836364 12.8472727,34.3163636 C12.8472727,33.64 12.6290909,32.5272727 10.6872727,33.1818182 C8.76727272,33.8581818 7.1090909,36.1927273 7.1090909,36.1927273 C5.95272726,37.7418182 6.10545454,38.9418182 6.10545454,38.9418182 C6.3890909,41.6036364 9.18181818,42.3236364 11.3418182,42.4981818 C13.6109091,42.6727273 16.6872727,41.6909091 17.6254545,39.6836364 Z M15.7490909,34.1418182 C17.4290909,33.7709091 17.0581818,35.4509091 17.0581818,35.4945455 C17.0581818,35.6909091 17.2109091,35.8654545 17.4290909,35.8654545 C17.6254545,35.8654545 17.7781818,35.7127273 17.8,35.5381818 L17.8,35.4945455 C18.0836364,32.9636364 15.7490909,33.4 15.7490909,33.4 C15.5527273,33.4 15.3781818,33.5527273 15.3781818,33.7709091 C15.3781818,33.9672727 15.5527273,34.1418182 15.7490909,34.1418182 Z M19.6981818,36.5636364 C20.5709091,33.5745455 18.6072727,31.96 17.1454545,31.6109091 C16.36,31.4145455 15.5309091,31.48 15.2909091,31.5236364 C15.2909091,31.5236364 15.2690909,31.5018182 15.2472727,31.5018182 C15.2254545,31.5018182 15.2254545,31.48 15.2254545,31.48 C15.0072727,31.5454545 14.8327273,31.7418182 14.8327273,32.0036364 C14.8327273,32.3090909 15.0727273,32.5490909 15.3781818,32.5490909 C15.3781818,32.5490909 15.6836364,32.5054545 15.88,32.4181818 C16.0763636,32.3527273 17.7345455,32.3527273 18.5636364,33.7709091 C19.0218182,34.7963636 18.76,35.4945455 18.7381818,35.6036364 C18.7381818,35.6036364 18.6290909,35.8654545 18.6290909,36.1272727 C18.6290909,36.4327273 18.8690909,36.8254545 19.1745455,36.8254545 C19.4145455,36.8254545 19.6327273,37 19.6981818,36.5636364 Z"></path>
                    </g>
                </g>
            </g>
        </g>
    </g>
</svg>