<?xml version="1.0" encoding="UTF-8"?>
<svg width="16px" height="19px" viewBox="0 0 16 19" version="1.1" xmlns="http://www.w3.org/2000/svg" xmlns:xlink="http://www.w3.org/1999/xlink">
    <!-- Generator: Sketch 52.2 (67145) - http://www.bohemiancoding.com/sketch -->
    <title>Shape</title>
    <desc>Created with Sketch.</desc>
    <g id="会员-PC" stroke="none" stroke-width="1" fill="none" fill-rule="evenodd">
        <g id="账号密码登录" transform="translate(-956.000000, -268.000000)" fill="#FFFFFF" fill-rule="nonzero">
            <g transform="translate(914.000000, 116.000000)" id="密码">
                <g transform="translate(30.000000, 142.000000)">
                    <path d="M22.7666667,15.0464 C22.7559,13.3066333 21.3423,11.9 19.6,11.9 C17.8513667,11.9 16.4333333,13.3180333 16.4333333,15.0666667 L16.4333333,18.2333333 L22.7666667,18.2333333 L22.7666667,15.0666667 L22.7666667,15.0464 Z M24.6666667,18.2333333 L25.9301667,18.2333333 C26.6312667,18.2333333 27.2,18.7989 27.2,19.4968333 L27.2,27.7365 C27.2,28.4344333 26.6319,29 25.9301667,29 L13.2698333,29 C12.5687333,29 12,28.4350667 12,27.7365 L12,19.4968333 C12,18.7995333 12.5681,18.2333333 13.2698333,18.2333333 L14.5333333,18.2333333 L14.5333333,15.0666667 C14.5510667,12.2508667 16.8127,10 19.6,10 C22.3980667,10 24.6666667,12.2686 24.6666667,15.0666667 L24.6666667,18.2333333 Z" id="Shape"></path>
                </g>
            </g>
        </g>
    </g>
</svg>